<?xml version="1.0" encoding="UTF-8" standalone="no"?>
<svg width="2977.2px" height="4208.4px" viewBox="0 0 2977.2 4208.4"
 xmlns="http://www.w3.org/2000/svg" xmlns:xlink="http://www.w3.org/1999/xlink" version="1.2" baseProfile="tiny">
<title>Twinkle_Twinkle_Little_Star (1)</title>
<desc>Generated by MuseScore 3.3.0</desc>
<polyline class="StaffLines" fill="none" stroke="#000000" stroke-width="2.00" stroke-linejoin="bevel" points="141.732,566.733 2835.47,566.733"/>
<polyline class="StaffLines" fill="none" stroke="#000000" stroke-width="2.00" stroke-linejoin="bevel" points="141.732,591.733 2835.47,591.733"/>
<polyline class="StaffLines" fill="none" stroke="#000000" stroke-width="2.00" stroke-linejoin="bevel" points="141.732,616.733 2835.47,616.733"/>
<polyline class="StaffLines" fill="none" stroke="#000000" stroke-width="2.00" stroke-linejoin="bevel" points="141.732,641.733 2835.47,641.733"/>
<polyline class="StaffLines" fill="none" stroke="#000000" stroke-width="2.00" stroke-linejoin="bevel" points="141.732,666.733 2835.47,666.733"/>
<polyline class="StaffLines" fill="none" stroke="#000000" stroke-width="2.00" stroke-linejoin="bevel" points="141.732,1041.73 2835.47,1041.73"/>
<polyline class="StaffLines" fill="none" stroke="#000000" stroke-width="2.00" stroke-linejoin="bevel" points="141.732,1066.73 2835.47,1066.73"/>
<polyline class="StaffLines" fill="none" stroke="#000000" stroke-width="2.00" stroke-linejoin="bevel" points="141.732,1091.73 2835.47,1091.73"/>
<polyline class="StaffLines" fill="none" stroke="#000000" stroke-width="2.00" stroke-linejoin="bevel" points="141.732,1116.73 2835.47,1116.73"/>
<polyline class="StaffLines" fill="none" stroke="#000000" stroke-width="2.00" stroke-linejoin="bevel" points="141.732,1141.73 2835.47,1141.73"/>
<polyline class="StaffLines" fill="none" stroke="#000000" stroke-width="2.00" stroke-linejoin="bevel" points="141.732,1516.73 2835.47,1516.73"/>
<polyline class="StaffLines" fill="none" stroke="#000000" stroke-width="2.00" stroke-linejoin="bevel" points="141.732,1541.73 2835.47,1541.73"/>
<polyline class="StaffLines" fill="none" stroke="#000000" stroke-width="2.00" stroke-linejoin="bevel" points="141.732,1566.73 2835.47,1566.73"/>
<polyline class="StaffLines" fill="none" stroke="#000000" stroke-width="2.00" stroke-linejoin="bevel" points="141.732,1591.73 2835.47,1591.73"/>
<polyline class="StaffLines" fill="none" stroke="#000000" stroke-width="2.00" stroke-linejoin="bevel" points="141.732,1616.73 2835.47,1616.73"/>
<polyline class="StaffLines" fill="none" stroke="#000000" stroke-width="2.00" stroke-linejoin="bevel" points="141.732,1991.73 2835.47,1991.73"/>
<polyline class="StaffLines" fill="none" stroke="#000000" stroke-width="2.00" stroke-linejoin="bevel" points="141.732,2016.73 2835.47,2016.73"/>
<polyline class="StaffLines" fill="none" stroke="#000000" stroke-width="2.00" stroke-linejoin="bevel" points="141.732,2041.73 2835.47,2041.73"/>
<polyline class="StaffLines" fill="none" stroke="#000000" stroke-width="2.00" stroke-linejoin="bevel" points="141.732,2066.73 2835.47,2066.73"/>
<polyline class="StaffLines" fill="none" stroke="#000000" stroke-width="2.00" stroke-linejoin="bevel" points="141.732,2091.73 2835.47,2091.73"/>
<path class="Text" d="M855.879,149.285 L849.399,149.285 C842.679,149.285 838.179,150.205 835.899,152.045 C833.619,153.885 831.759,158.085 830.319,164.645 L827.439,164.645 L828.159,144.245 L895.839,144.245 L896.559,164.645 L893.679,164.645 C892.319,158.005 890.499,153.785 888.219,151.985 C885.939,150.185 881.399,149.285 874.599,149.285 L868.119,149.285 L868.119,210.605 C868.119,215.005 868.799,217.845 870.159,219.125 C871.519,220.405 874.679,221.165 879.639,221.405 L879.639,223.685 L844.599,223.685 L844.599,221.405 C849.559,221.085 852.679,220.265 853.959,218.945 C855.239,217.625 855.879,214.405 855.879,209.285 L855.879,149.285 M938.557,186.485 C936.397,180.085 934.737,176.065 933.577,174.425 C932.417,172.785 930.517,171.805 927.877,171.485 L927.877,169.685 L952.237,169.685 L952.237,171.485 C949.437,171.885 947.577,172.365 946.657,172.925 C945.737,173.485 945.277,174.445 945.277,175.805 C945.277,176.845 945.957,179.205 947.317,182.885 L957.397,209.765 L968.197,183.125 C969.557,179.765 970.237,177.125 970.237,175.205 C970.237,174.165 969.877,173.385 969.157,172.865 C968.437,172.345 967.037,171.885 964.957,171.485 L964.957,169.685 L979.717,169.685 L979.717,171.485 C978.517,171.885 977.657,172.445 977.137,173.165 C976.617,173.885 975.837,175.485 974.797,177.965 L958.237,219.485 C956.637,223.405 955.517,225.365 954.877,225.365 C954.237,225.365 953.277,223.645 951.997,220.205 L941.077,191.885 L927.637,220.685 C926.197,223.805 925.197,225.365 924.637,225.365 C923.997,225.365 922.957,223.605 921.517,220.085 L905.317,179.045 C904.117,176.005 903.117,174.025 902.317,173.105 C901.517,172.185 900.397,171.645 898.957,171.485 L898.957,169.685 L920.557,169.685 L920.557,171.485 C918.477,171.725 917.037,172.125 916.237,172.685 C915.437,173.245 915.037,174.165 915.037,175.445 C915.037,176.645 915.277,177.845 915.757,179.045 L927.637,210.365 L938.557,186.485 M987.75,176.525 C985.99,176.525 984.31,176.645 982.71,176.885 L982.71,175.085 C988.31,173.485 994.51,171.285 1001.31,168.485 L1001.79,168.845 L1001.79,211.445 C1001.79,215.765 1002.29,218.505 1003.29,219.665 C1004.29,220.825 1006.75,221.565 1010.67,221.885 L1010.67,223.685 L982.23,223.685 L982.23,221.885 C986.39,221.645 989.01,220.925 990.09,219.725 C991.17,218.525 991.71,215.765 991.71,211.445 L991.71,183.605 C991.71,180.965 991.41,179.125 990.81,178.085 C990.21,177.045 989.19,176.525 987.75,176.525 M995.67,141.725 C997.43,141.725 998.91,142.325 1000.11,143.525 C1001.31,144.725 1001.91,146.165 1001.91,147.845 C1001.91,149.605 1001.31,151.065 1000.11,152.225 C998.91,153.385 997.43,153.965 995.67,153.965 C993.99,153.965 992.57,153.365 991.41,152.165 C990.25,150.965 989.67,149.525 989.67,147.845 C989.67,146.165 990.27,144.725 991.47,143.525 C992.67,142.325 994.07,141.725 995.67,141.725 M1014.87,175.925 L1014.87,173.885 C1020.79,172.125 1026.31,170.325 1031.43,168.485 L1032.27,168.725 L1032.27,178.205 C1036.35,174.365 1039.57,171.785 1041.93,170.465 C1044.29,169.145 1046.87,168.485 1049.67,168.485 C1054.07,168.485 1057.53,170.065 1060.05,173.225 C1062.57,176.385 1063.83,180.805 1063.83,186.485 L1063.83,213.965 C1063.83,216.925 1064.31,218.905 1065.27,219.905 C1066.23,220.905 1068.19,221.565 1071.15,221.885 L1071.15,223.685 L1046.19,223.685 L1046.19,221.885 C1049.23,221.645 1051.25,220.845 1052.25,219.485 C1053.25,218.125 1053.75,215.565 1053.75,211.805 L1053.75,186.725 C1053.75,178.965 1050.83,175.085 1044.99,175.085 C1042.99,175.085 1041.15,175.545 1039.47,176.465 C1037.79,177.385 1035.51,179.205 1032.63,181.925 L1032.63,215.645 C1032.63,217.805 1033.19,219.325 1034.31,220.205 C1035.43,221.085 1037.51,221.645 1040.55,221.885 L1040.55,223.685 L1015.11,223.685 L1015.11,221.885 C1018.15,221.645 1020.15,220.945 1021.11,219.785 C1022.07,218.625 1022.55,216.325 1022.55,212.885 L1022.55,183.125 C1022.55,180.165 1022.23,178.145 1021.59,177.065 C1020.95,175.985 1019.79,175.445 1018.11,175.445 C1016.59,175.445 1015.51,175.605 1014.87,175.925 M1073.54,148.925 L1073.54,147.005 C1080.34,145.325 1086.54,143.565 1092.14,141.725 L1092.62,141.965 L1092.62,192.365 L1109.06,177.725 C1110.9,176.125 1111.82,174.765 1111.82,173.645 C1111.82,172.845 1111.4,172.285 1110.56,171.965 C1109.72,171.645 1108.14,171.445 1105.82,171.365 L1105.82,169.685 L1130.3,169.685 L1130.3,171.485 C1128.46,171.485 1127,171.585 1125.92,171.785 C1124.84,171.985 1123.3,172.525 1121.3,173.405 C1119.3,174.285 1116.96,175.805 1114.28,177.965 C1111.6,180.125 1108.3,183.005 1104.38,186.605 L1100.9,189.845 L1119.26,213.125 C1121.74,216.165 1124.04,218.345 1126.16,219.665 C1128.28,220.985 1130.66,221.725 1133.3,221.885 L1133.3,223.685 L1107.14,223.685 L1107.14,221.885 C1110.34,221.885 1111.94,221.285 1111.94,220.085 C1111.94,219.765 1111.82,219.385 1111.58,218.945 C1111.34,218.505 1110.96,217.985 1110.44,217.385 C1109.92,216.785 1109.58,216.325 1109.42,216.005 L1092.62,193.565 L1092.62,214.085 C1092.62,216.965 1093.08,218.805 1094,219.605 C1094.92,220.405 1097.46,221.165 1101.62,221.885 L1101.62,223.685 L1073.54,223.685 L1073.54,221.885 C1077.86,221.165 1080.44,220.425 1081.28,219.665 C1082.12,218.905 1082.54,216.965 1082.54,213.845 L1082.54,156.005 C1082.54,153.125 1082.18,151.185 1081.46,150.185 C1080.74,149.185 1079.38,148.685 1077.38,148.685 C1076.26,148.685 1074.98,148.765 1073.54,148.925 M1135.09,148.925 L1135.09,147.005 C1143.01,145.085 1149.37,143.325 1154.17,141.725 L1154.65,141.965 L1154.65,213.605 C1154.65,216.885 1155.19,219.025 1156.27,220.025 C1157.35,221.025 1159.81,221.645 1163.65,221.885 L1163.65,223.685 L1135.33,223.685 L1135.33,221.885 C1139.09,221.565 1141.57,220.845 1142.77,219.725 C1143.97,218.605 1144.57,216.445 1144.57,213.245 L1144.57,156.005 C1144.57,153.205 1144.21,151.285 1143.49,150.245 C1142.77,149.205 1141.45,148.685 1139.53,148.685 C1137.93,148.685 1136.45,148.765 1135.09,148.925 M1176.48,190.445 C1176.64,195.485 1177.32,199.825 1178.52,203.465 C1179.72,207.105 1181.28,209.825 1183.2,211.625 C1185.12,213.425 1187.06,214.705 1189.02,215.465 C1190.98,216.225 1193.04,216.605 1195.2,216.605 C1199.04,216.605 1202.38,215.645 1205.22,213.725 C1208.06,211.805 1210.92,208.565 1213.8,204.005 L1215.72,204.845 C1213.24,211.325 1209.8,216.285 1205.4,219.725 C1201,223.165 1195.96,224.885 1190.28,224.885 C1183.4,224.885 1177.94,222.465 1173.9,217.625 C1169.86,212.785 1167.84,206.245 1167.84,198.005 C1167.84,189.125 1170.18,181.985 1174.86,176.585 C1179.54,171.185 1185.56,168.485 1192.92,168.485 C1199,168.485 1203.72,170.305 1207.08,173.945 C1210.44,177.585 1212.56,183.085 1213.44,190.445 L1176.48,190.445 M1176.72,186.605 L1201.2,186.605 C1200.4,181.405 1199.16,177.805 1197.48,175.805 C1195.8,173.805 1193.12,172.805 1189.44,172.805 C1182.24,172.805 1178,177.405 1176.72,186.605 M1278.35,149.285 L1271.87,149.285 C1265.15,149.285 1260.65,150.205 1258.37,152.045 C1256.09,153.885 1254.23,158.085 1252.79,164.645 L1249.91,164.645 L1250.63,144.245 L1318.31,144.245 L1319.03,164.645 L1316.15,164.645 C1314.79,158.005 1312.97,153.785 1310.69,151.985 C1308.41,150.185 1303.87,149.285 1297.07,149.285 L1290.59,149.285 L1290.59,210.605 C1290.59,215.005 1291.27,217.845 1292.63,219.125 C1293.99,220.405 1297.15,221.165 1302.11,221.405 L1302.11,223.685 L1267.07,223.685 L1267.07,221.405 C1272.03,221.085 1275.15,220.265 1276.43,218.945 C1277.71,217.625 1278.35,214.405 1278.35,209.285 L1278.35,149.285 M1361.03,186.485 C1358.87,180.085 1357.21,176.065 1356.05,174.425 C1354.89,172.785 1352.99,171.805 1350.35,171.485 L1350.35,169.685 L1374.71,169.685 L1374.71,171.485 C1371.91,171.885 1370.05,172.365 1369.13,172.925 C1368.21,173.485 1367.75,174.445 1367.75,175.805 C1367.75,176.845 1368.43,179.205 1369.79,182.885 L1379.87,209.765 L1390.67,183.125 C1392.03,179.765 1392.71,177.125 1392.71,175.205 C1392.71,174.165 1392.35,173.385 1391.63,172.865 C1390.91,172.345 1389.51,171.885 1387.43,171.485 L1387.43,169.685 L1402.19,169.685 L1402.19,171.485 C1400.99,171.885 1400.13,172.445 1399.61,173.165 C1399.09,173.885 1398.31,175.485 1397.27,177.965 L1380.71,219.485 C1379.11,223.405 1377.99,225.365 1377.35,225.365 C1376.71,225.365 1375.75,223.645 1374.47,220.205 L1363.55,191.885 L1350.11,220.685 C1348.67,223.805 1347.67,225.365 1347.11,225.365 C1346.47,225.365 1345.43,223.605 1343.99,220.085 L1327.79,179.045 C1326.59,176.005 1325.59,174.025 1324.79,173.105 C1323.99,172.185 1322.87,171.645 1321.43,171.485 L1321.43,169.685 L1343.03,169.685 L1343.03,171.485 C1340.95,171.725 1339.51,172.125 1338.71,172.685 C1337.91,173.245 1337.51,174.165 1337.51,175.445 C1337.51,176.645 1337.75,177.845 1338.23,179.045 L1350.11,210.365 L1361.03,186.485 M1410.22,176.525 C1408.46,176.525 1406.78,176.645 1405.18,176.885 L1405.18,175.085 C1410.78,173.485 1416.98,171.285 1423.78,168.485 L1424.26,168.845 L1424.26,211.445 C1424.26,215.765 1424.76,218.505 1425.76,219.665 C1426.76,220.825 1429.22,221.565 1433.14,221.885 L1433.14,223.685 L1404.7,223.685 L1404.7,221.885 C1408.86,221.645 1411.48,220.925 1412.56,219.725 C1413.64,218.525 1414.18,215.765 1414.18,211.445 L1414.18,183.605 C1414.18,180.965 1413.88,179.125 1413.28,178.085 C1412.68,177.045 1411.66,176.525 1410.22,176.525 M1418.14,141.725 C1419.9,141.725 1421.38,142.325 1422.58,143.525 C1423.78,144.725 1424.38,146.165 1424.38,147.845 C1424.38,149.605 1423.78,151.065 1422.58,152.225 C1421.38,153.385 1419.9,153.965 1418.14,153.965 C1416.46,153.965 1415.04,153.365 1413.88,152.165 C1412.72,150.965 1412.14,149.525 1412.14,147.845 C1412.14,146.165 1412.74,144.725 1413.94,143.525 C1415.14,142.325 1416.54,141.725 1418.14,141.725 M1437.34,175.925 L1437.34,173.885 C1443.26,172.125 1448.78,170.325 1453.9,168.485 L1454.74,168.725 L1454.74,178.205 C1458.82,174.365 1462.04,171.785 1464.4,170.465 C1466.76,169.145 1469.34,168.485 1472.14,168.485 C1476.54,168.485 1480,170.065 1482.52,173.225 C1485.04,176.385 1486.3,180.805 1486.3,186.485 L1486.3,213.965 C1486.3,216.925 1486.78,218.905 1487.74,219.905 C1488.7,220.905 1490.66,221.565 1493.62,221.885 L1493.62,223.685 L1468.66,223.685 L1468.66,221.885 C1471.7,221.645 1473.72,220.845 1474.72,219.485 C1475.72,218.125 1476.22,215.565 1476.22,211.805 L1476.22,186.725 C1476.22,178.965 1473.3,175.085 1467.46,175.085 C1465.46,175.085 1463.62,175.545 1461.94,176.465 C1460.26,177.385 1457.98,179.205 1455.1,181.925 L1455.1,215.645 C1455.1,217.805 1455.66,219.325 1456.78,220.205 C1457.9,221.085 1459.98,221.645 1463.02,221.885 L1463.02,223.685 L1437.58,223.685 L1437.58,221.885 C1440.62,221.645 1442.62,220.945 1443.58,219.785 C1444.54,218.625 1445.02,216.325 1445.02,212.885 L1445.02,183.125 C1445.02,180.165 1444.7,178.145 1444.06,177.065 C1443.42,175.985 1442.26,175.445 1440.58,175.445 C1439.06,175.445 1437.98,175.605 1437.34,175.925 M1496.01,148.925 L1496.01,147.005 C1502.81,145.325 1509.01,143.565 1514.61,141.725 L1515.09,141.965 L1515.09,192.365 L1531.53,177.725 C1533.37,176.125 1534.29,174.765 1534.29,173.645 C1534.29,172.845 1533.87,172.285 1533.03,171.965 C1532.19,171.645 1530.61,171.445 1528.29,171.365 L1528.29,169.685 L1552.77,169.685 L1552.77,171.485 C1550.93,171.485 1549.47,171.585 1548.39,171.785 C1547.31,171.985 1545.77,172.525 1543.77,173.405 C1541.77,174.285 1539.43,175.805 1536.75,177.965 C1534.07,180.125 1530.77,183.005 1526.85,186.605 L1523.37,189.845 L1541.73,213.125 C1544.21,216.165 1546.51,218.345 1548.63,219.665 C1550.75,220.985 1553.13,221.725 1555.77,221.885 L1555.77,223.685 L1529.61,223.685 L1529.61,221.885 C1532.81,221.885 1534.41,221.285 1534.41,220.085 C1534.41,219.765 1534.29,219.385 1534.05,218.945 C1533.81,218.505 1533.43,217.985 1532.91,217.385 C1532.39,216.785 1532.05,216.325 1531.89,216.005 L1515.09,193.565 L1515.09,214.085 C1515.09,216.965 1515.55,218.805 1516.47,219.605 C1517.39,220.405 1519.93,221.165 1524.09,221.885 L1524.09,223.685 L1496.01,223.685 L1496.01,221.885 C1500.33,221.165 1502.91,220.425 1503.75,219.665 C1504.59,218.905 1505.01,216.965 1505.01,213.845 L1505.01,156.005 C1505.01,153.125 1504.65,151.185 1503.93,150.185 C1503.21,149.185 1501.85,148.685 1499.85,148.685 C1498.73,148.685 1497.45,148.765 1496.01,148.925 M1557.56,148.925 L1557.56,147.005 C1565.48,145.085 1571.84,143.325 1576.64,141.725 L1577.12,141.965 L1577.12,213.605 C1577.12,216.885 1577.66,219.025 1578.74,220.025 C1579.82,221.025 1582.28,221.645 1586.12,221.885 L1586.12,223.685 L1557.8,223.685 L1557.8,221.885 C1561.56,221.565 1564.04,220.845 1565.24,219.725 C1566.44,218.605 1567.04,216.445 1567.04,213.245 L1567.04,156.005 C1567.04,153.205 1566.68,151.285 1565.96,150.245 C1565.24,149.205 1563.92,148.685 1562,148.685 C1560.4,148.685 1558.92,148.765 1557.56,148.925 M1598.95,190.445 C1599.11,195.485 1599.79,199.825 1600.99,203.465 C1602.19,207.105 1603.75,209.825 1605.67,211.625 C1607.59,213.425 1609.53,214.705 1611.49,215.465 C1613.45,216.225 1615.51,216.605 1617.67,216.605 C1621.51,216.605 1624.85,215.645 1627.69,213.725 C1630.53,211.805 1633.39,208.565 1636.27,204.005 L1638.19,204.845 C1635.71,211.325 1632.27,216.285 1627.87,219.725 C1623.47,223.165 1618.43,224.885 1612.75,224.885 C1605.87,224.885 1600.41,222.465 1596.37,217.625 C1592.33,212.785 1590.31,206.245 1590.31,198.005 C1590.31,189.125 1592.65,181.985 1597.33,176.585 C1602.01,171.185 1608.03,168.485 1615.39,168.485 C1621.47,168.485 1626.19,170.305 1629.55,173.945 C1632.91,177.585 1635.03,183.085 1635.91,190.445 L1598.95,190.445 M1599.19,186.605 L1623.67,186.605 C1622.87,181.405 1621.63,177.805 1619.95,175.805 C1618.27,173.805 1615.59,172.805 1611.91,172.805 C1604.71,172.805 1600.47,177.405 1599.19,186.605 M1713.42,219.005 C1715.5,219.005 1717.44,218.885 1719.24,218.645 C1721.04,218.405 1722.62,218.145 1723.98,217.865 C1725.34,217.585 1726.66,217.125 1727.94,216.485 C1729.22,215.845 1730.26,215.325 1731.06,214.925 C1731.86,214.525 1732.68,213.865 1733.52,212.945 C1734.36,212.025 1735,211.365 1735.44,210.965 C1735.88,210.565 1736.38,209.825 1736.94,208.745 C1737.5,207.665 1737.86,206.965 1738.02,206.645 C1738.18,206.325 1738.5,205.625 1738.98,204.545 C1739.46,203.465 1739.7,202.885 1739.7,202.805 L1742.7,202.805 L1736.94,223.685 L1672.38,223.685 L1672.38,221.405 C1676.78,221.085 1679.62,220.265 1680.9,218.945 C1682.18,217.625 1682.82,214.845 1682.82,210.605 L1682.82,157.325 C1682.82,153.085 1682.18,150.305 1680.9,148.985 C1679.62,147.665 1676.78,146.845 1672.38,146.525 L1672.38,144.245 L1706.22,144.245 L1706.22,146.525 C1701.5,146.845 1698.46,147.665 1697.1,148.985 C1695.74,150.305 1695.06,153.085 1695.06,157.325 L1695.06,214.085 C1695.06,216.165 1695.68,217.505 1696.92,218.105 C1698.16,218.705 1700.98,219.005 1705.38,219.005 L1713.42,219.005 M1751.33,176.525 C1749.57,176.525 1747.89,176.645 1746.29,176.885 L1746.29,175.085 C1751.89,173.485 1758.09,171.285 1764.89,168.485 L1765.37,168.845 L1765.37,211.445 C1765.37,215.765 1765.87,218.505 1766.87,219.665 C1767.87,220.825 1770.33,221.565 1774.25,221.885 L1774.25,223.685 L1745.81,223.685 L1745.81,221.885 C1749.97,221.645 1752.59,220.925 1753.67,219.725 C1754.75,218.525 1755.29,215.765 1755.29,211.445 L1755.29,183.605 C1755.29,180.965 1754.99,179.125 1754.39,178.085 C1753.79,177.045 1752.77,176.525 1751.33,176.525 M1759.25,141.725 C1761.01,141.725 1762.49,142.325 1763.69,143.525 C1764.89,144.725 1765.49,146.165 1765.49,147.845 C1765.49,149.605 1764.89,151.065 1763.69,152.225 C1762.49,153.385 1761.01,153.965 1759.25,153.965 C1757.57,153.965 1756.15,153.365 1754.99,152.165 C1753.83,150.965 1753.25,149.525 1753.25,147.845 C1753.25,146.165 1753.85,144.725 1755.05,143.525 C1756.25,142.325 1757.65,141.725 1759.25,141.725 M1808.33,169.685 L1808.33,173.525 L1796.21,173.525 L1796.21,207.845 C1796.21,211.605 1796.69,214.345 1797.65,216.065 C1798.61,217.785 1800.21,218.645 1802.45,218.645 C1804.93,218.645 1807.33,217.245 1809.65,214.445 L1811.21,215.765 C1807.37,221.845 1802.57,224.885 1796.81,224.885 C1789.69,224.885 1786.13,219.805 1786.13,209.645 L1786.13,173.525 L1779.77,173.525 C1779.45,173.285 1779.29,173.005 1779.29,172.685 C1779.29,172.285 1779.41,171.965 1779.65,171.725 C1779.89,171.485 1780.35,171.145 1781.03,170.705 C1781.71,170.265 1782.53,169.665 1783.49,168.905 C1784.45,168.145 1785.77,166.765 1787.45,164.765 C1789.13,162.765 1790.97,160.365 1792.97,157.565 C1794.25,155.725 1795.05,154.605 1795.37,154.205 C1795.93,154.205 1796.21,154.725 1796.21,155.765 L1796.21,169.685 L1808.33,169.685 M1842.28,169.685 L1842.28,173.525 L1830.16,173.525 L1830.16,207.845 C1830.16,211.605 1830.64,214.345 1831.6,216.065 C1832.56,217.785 1834.16,218.645 1836.4,218.645 C1838.88,218.645 1841.28,217.245 1843.6,214.445 L1845.16,215.765 C1841.32,221.845 1836.52,224.885 1830.76,224.885 C1823.64,224.885 1820.08,219.805 1820.08,209.645 L1820.08,173.525 L1813.72,173.525 C1813.4,173.285 1813.24,173.005 1813.24,172.685 C1813.24,172.285 1813.36,171.965 1813.6,171.725 C1813.84,171.485 1814.3,171.145 1814.98,170.705 C1815.66,170.265 1816.48,169.665 1817.44,168.905 C1818.4,168.145 1819.72,166.765 1821.4,164.765 C1823.08,162.765 1824.92,160.365 1826.92,157.565 C1828.2,155.725 1829,154.605 1829.32,154.205 C1829.88,154.205 1830.16,154.725 1830.16,155.765 L1830.16,169.685 L1842.28,169.685 M1846.35,148.925 L1846.35,147.005 C1854.27,145.085 1860.63,143.325 1865.43,141.725 L1865.91,141.965 L1865.91,213.605 C1865.91,216.885 1866.45,219.025 1867.53,220.025 C1868.61,221.025 1871.07,221.645 1874.91,221.885 L1874.91,223.685 L1846.59,223.685 L1846.59,221.885 C1850.35,221.565 1852.83,220.845 1854.03,219.725 C1855.23,218.605 1855.83,216.445 1855.83,213.245 L1855.83,156.005 C1855.83,153.205 1855.47,151.285 1854.75,150.245 C1854.03,149.205 1852.71,148.685 1850.79,148.685 C1849.19,148.685 1847.71,148.765 1846.35,148.925 M1887.75,190.445 C1887.91,195.485 1888.59,199.825 1889.79,203.465 C1890.99,207.105 1892.55,209.825 1894.47,211.625 C1896.39,213.425 1898.33,214.705 1900.29,215.465 C1902.25,216.225 1904.31,216.605 1906.47,216.605 C1910.31,216.605 1913.65,215.645 1916.49,213.725 C1919.33,211.805 1922.19,208.565 1925.07,204.005 L1926.99,204.845 C1924.51,211.325 1921.07,216.285 1916.67,219.725 C1912.27,223.165 1907.23,224.885 1901.55,224.885 C1894.67,224.885 1889.21,222.465 1885.17,217.625 C1881.13,212.785 1879.11,206.245 1879.11,198.005 C1879.11,189.125 1881.45,181.985 1886.13,176.585 C1890.81,171.185 1896.83,168.485 1904.19,168.485 C1910.27,168.485 1914.99,170.305 1918.35,173.945 C1921.71,177.585 1923.83,183.085 1924.71,190.445 L1887.75,190.445 M1887.99,186.605 L1912.47,186.605 C1911.67,181.405 1910.43,177.805 1908.75,175.805 C1907.07,173.805 1904.39,172.805 1900.71,172.805 C1893.51,172.805 1889.27,177.405 1887.99,186.605 M2004.73,207.485 C2004.73,203.725 2003.41,200.385 2000.77,197.465 C1998.13,194.545 1994.93,192.045 1991.17,189.965 C1987.41,187.885 1983.67,185.745 1979.95,183.545 C1976.23,181.345 1973.05,178.525 1970.41,175.085 C1967.77,171.645 1966.45,167.645 1966.45,163.085 C1966.45,157.005 1968.51,152.065 1972.63,148.265 C1976.75,144.465 1981.61,142.565 1987.21,142.565 C1990.57,142.565 1994.21,143.245 1998.13,144.605 C2002.05,145.965 2004.41,146.645 2005.21,146.645 C2007.29,146.645 2008.57,145.285 2009.05,142.565 L2011.57,142.565 L2014.21,168.125 L2011.21,168.125 C2009.29,161.085 2006.35,155.885 2002.39,152.525 C1998.43,149.165 1994.05,147.485 1989.25,147.485 C1985.57,147.485 1982.57,148.525 1980.25,150.605 C1977.93,152.685 1976.77,155.365 1976.77,158.645 C1976.77,161.845 1978.13,164.885 1980.85,167.765 C1983.57,170.645 1988.09,173.845 1994.41,177.365 C2002.33,181.605 2008.05,185.785 2011.57,189.905 C2015.09,194.025 2016.85,198.565 2016.85,203.525 C2016.85,209.685 2014.49,214.865 2009.77,219.065 C2005.05,223.265 1999.25,225.365 1992.37,225.365 C1988.37,225.365 1984.31,224.685 1980.19,223.325 C1976.07,221.965 1973.53,221.285 1972.57,221.285 C1971.69,221.285 1970.93,221.665 1970.29,222.425 C1969.65,223.185 1969.29,224.125 1969.21,225.245 L1966.57,225.245 L1962.97,199.805 L1965.73,199.805 C1968.69,207.085 1972.13,212.445 1976.05,215.885 C1979.97,219.325 1984.61,221.045 1989.97,221.045 C1994.37,221.045 1997.93,219.785 2000.65,217.265 C2003.37,214.745 2004.73,211.485 2004.73,207.485 M2053.92,169.685 L2053.92,173.525 L2041.8,173.525 L2041.8,207.845 C2041.8,211.605 2042.28,214.345 2043.24,216.065 C2044.2,217.785 2045.8,218.645 2048.04,218.645 C2050.52,218.645 2052.92,217.245 2055.24,214.445 L2056.8,215.765 C2052.96,221.845 2048.16,224.885 2042.4,224.885 C2035.28,224.885 2031.72,219.805 2031.72,209.645 L2031.72,173.525 L2025.36,173.525 C2025.04,173.285 2024.88,173.005 2024.88,172.685 C2024.88,172.285 2025,171.965 2025.24,171.725 C2025.48,171.485 2025.94,171.145 2026.62,170.705 C2027.3,170.265 2028.12,169.665 2029.08,168.905 C2030.04,168.145 2031.36,166.765 2033.04,164.765 C2034.72,162.765 2036.56,160.365 2038.56,157.565 C2039.84,155.725 2040.64,154.605 2040.96,154.205 C2041.52,154.205 2041.8,154.725 2041.8,155.765 L2041.8,169.685 L2053.92,169.685 M2059.79,212.045 C2059.79,210.605 2059.95,209.265 2060.27,208.025 C2060.59,206.785 2061.15,205.625 2061.95,204.545 C2062.75,203.465 2063.51,202.485 2064.23,201.605 C2064.95,200.725 2066.03,199.825 2067.47,198.905 C2068.91,197.985 2070.11,197.225 2071.07,196.625 C2072.03,196.025 2073.49,195.305 2075.45,194.465 C2077.41,193.625 2078.91,192.985 2079.95,192.545 C2080.99,192.105 2082.63,191.445 2084.87,190.565 C2087.11,189.685 2088.75,189.045 2089.79,188.645 L2089.79,181.325 C2089.79,174.685 2086.75,171.365 2080.67,171.365 C2078.27,171.365 2076.23,171.945 2074.55,173.105 C2072.87,174.265 2072.03,175.645 2072.03,177.245 C2072.03,177.885 2072.13,178.765 2072.33,179.885 C2072.53,181.005 2072.63,181.725 2072.63,182.045 C2072.63,183.405 2072.09,184.585 2071.01,185.585 C2069.93,186.585 2068.67,187.085 2067.23,187.085 C2065.87,187.085 2064.67,186.565 2063.63,185.525 C2062.59,184.485 2062.07,183.285 2062.07,181.925 C2062.07,178.165 2064.01,174.985 2067.89,172.385 C2071.77,169.785 2076.55,168.485 2082.23,168.485 C2088.79,168.485 2093.31,170.065 2095.79,173.225 C2098.27,176.385 2099.51,181.205 2099.51,187.685 L2099.51,211.085 C2099.51,213.725 2099.77,215.545 2100.29,216.545 C2100.81,217.545 2101.75,218.045 2103.11,218.045 C2104.79,218.045 2106.55,217.285 2108.39,215.765 L2108.39,218.885 C2106.31,221.205 2104.49,222.785 2102.93,223.625 C2101.37,224.465 2099.59,224.885 2097.59,224.885 C2095.11,224.885 2093.29,224.205 2092.13,222.845 C2090.97,221.485 2090.23,219.245 2089.91,216.125 C2083.03,221.965 2077.19,224.885 2072.39,224.885 C2068.71,224.885 2065.69,223.685 2063.33,221.285 C2060.97,218.885 2059.79,215.805 2059.79,212.045 M2089.79,208.925 L2089.79,191.525 C2082.59,194.165 2077.55,196.725 2074.67,199.205 C2071.79,201.685 2070.35,204.685 2070.35,208.205 C2070.35,211.485 2071.15,213.925 2072.75,215.525 C2074.35,217.125 2076.07,217.925 2077.91,217.925 C2080.63,217.925 2083.55,217.005 2086.67,215.165 C2087.95,214.445 2088.79,213.685 2089.19,212.885 C2089.59,212.085 2089.79,210.765 2089.79,208.925 M2145.1,180.245 C2143.9,180.245 2142.42,179.545 2140.66,178.145 C2138.9,176.745 2137.74,176.045 2137.18,176.045 C2135.58,176.045 2133.78,177.205 2131.78,179.525 C2129.78,181.845 2128.78,183.965 2128.78,185.885 L2128.78,212.885 C2128.78,216.325 2129.46,218.645 2130.82,219.845 C2132.18,221.045 2134.9,221.725 2138.98,221.885 L2138.98,223.685 L2110.18,223.685 L2110.18,221.885 C2114.02,221.165 2116.4,220.365 2117.32,219.485 C2118.24,218.605 2118.7,216.645 2118.7,213.605 L2118.7,183.605 C2118.7,180.965 2118.4,179.105 2117.8,178.025 C2117.2,176.945 2116.14,176.405 2114.62,176.405 C2113.34,176.405 2111.94,176.565 2110.42,176.885 L2110.42,174.965 C2116.82,172.885 2122.74,170.725 2128.18,168.485 L2128.78,168.725 L2128.78,179.765 C2131.74,175.525 2134.26,172.585 2136.34,170.945 C2138.42,169.305 2140.7,168.485 2143.18,168.485 C2145.26,168.485 2146.88,169.045 2148.04,170.165 C2149.2,171.285 2149.78,172.845 2149.78,174.845 C2149.78,176.525 2149.36,177.845 2148.52,178.805 C2147.68,179.765 2146.54,180.245 2145.1,180.245"/>
<path class="MeasureNumber" d="M132.894,972.653 C133.028,972.04 133.161,971.506 133.294,971.053 C133.428,970.6 133.714,969.94 134.154,969.073 C134.594,968.206 135.088,967.486 135.634,966.913 C136.181,966.34 136.941,965.826 137.914,965.373 C138.888,964.92 139.988,964.693 141.214,964.693 C143.294,964.693 145.048,965.373 146.474,966.733 C147.901,968.093 148.614,969.773 148.614,971.773 C148.614,974.786 146.908,978.08 143.494,981.653 L136.774,988.693 L146.334,988.693 C147.241,988.693 147.914,988.54 148.354,988.233 C148.794,987.926 149.388,987.2 150.134,986.053 L150.654,986.253 L148.454,991.733 L132.854,991.733 L132.854,991.253 L139.974,983.693 C143.441,980.013 145.174,976.546 145.174,973.293 C145.174,971.613 144.654,970.253 143.614,969.213 C142.574,968.173 141.214,967.653 139.534,967.653 C138.148,967.653 137.034,968.033 136.194,968.793 C135.354,969.553 134.534,970.906 133.734,972.853 L132.894,972.653 "/>
<path class="MeasureNumber" d="M135.488,1463.61 C136.101,1463.61 137.015,1463.99 138.228,1464.73 C139.441,1465.48 140.501,1465.85 141.408,1465.85 C142.875,1465.85 144.115,1465.28 145.128,1464.13 C146.141,1462.99 146.648,1461.57 146.648,1459.89 C146.648,1458.85 146.468,1457.93 146.108,1457.13 C145.748,1456.33 145.288,1455.71 144.728,1455.27 C144.168,1454.83 143.501,1454.47 142.728,1454.19 C141.955,1453.91 141.228,1453.73 140.548,1453.65 C139.868,1453.57 139.141,1453.53 138.368,1453.53 L138.368,1453.01 C139.275,1452.69 140.055,1452.38 140.708,1452.07 C141.361,1451.77 142.048,1451.35 142.768,1450.83 C143.488,1450.31 144.041,1449.68 144.428,1448.93 C144.815,1448.19 145.008,1447.33 145.008,1446.37 C145.008,1445.12 144.601,1444.09 143.788,1443.29 C142.975,1442.49 141.915,1442.09 140.608,1442.09 C139.355,1442.09 138.255,1442.43 137.308,1443.11 C136.361,1443.79 135.475,1444.87 134.648,1446.33 L134.048,1446.17 C134.741,1444.28 135.681,1442.73 136.868,1441.51 C138.055,1440.3 139.741,1439.69 141.928,1439.69 C143.768,1439.69 145.268,1440.2 146.428,1441.21 C147.588,1442.23 148.168,1443.55 148.168,1445.17 C148.168,1446.27 147.888,1447.23 147.328,1448.05 C146.768,1448.88 145.795,1449.76 144.408,1450.69 C146.008,1451.39 147.261,1452.27 148.168,1453.35 C149.075,1454.43 149.528,1455.97 149.528,1457.97 C149.528,1460.8 148.481,1463.06 146.388,1464.75 C144.295,1466.45 141.661,1467.29 138.488,1467.29 C137.101,1467.29 136.001,1467.09 135.188,1466.67 C134.375,1466.26 133.968,1465.71 133.968,1465.01 C133.968,1464.59 134.108,1464.25 134.388,1463.99 C134.668,1463.74 135.035,1463.61 135.488,1463.61"/>
<path class="MeasureNumber" d="M150.956,1932.49 L150.956,1935.05 L146.876,1935.05 L146.876,1941.73 L143.796,1941.73 L143.796,1935.05 L132.556,1935.05 L132.556,1932.49 L145.116,1914.69 L146.876,1914.69 L146.876,1932.49 L150.956,1932.49 M143.756,1932.49 L143.756,1918.77 L134.156,1932.49 L143.756,1932.49 "/>
<polyline class="BarLine" fill="none" stroke="#000000" stroke-width="4.00" stroke-linejoin="bevel" points="2833.47,565.733 2833.47,667.733"/>
<polyline class="BarLine" fill="none" stroke="#000000" stroke-width="4.00" stroke-linejoin="bevel" points="2833.47,1040.73 2833.47,1142.73"/>
<polyline class="BarLine" fill="none" stroke="#000000" stroke-width="4.00" stroke-linejoin="bevel" points="2833.47,1515.73 2833.47,1617.73"/>
<polyline class="BarLine" fill="none" stroke="#000000" stroke-width="4.00" stroke-linejoin="bevel" points="2833.47,1990.73 2833.47,2092.73"/>
<polyline class="LedgerLine" fill="none" stroke="#000000" stroke-width="4.00" stroke-linecap="square" stroke-linejoin="bevel" points="337.904,691.733 385.818,691.733"/>
<polyline class="LedgerLine" fill="none" stroke="#000000" stroke-width="4.00" stroke-linecap="square" stroke-linejoin="bevel" points="959.42,691.733 1007.33,691.733"/>
<polyline class="LedgerLine" fill="none" stroke="#000000" stroke-width="4.00" stroke-linecap="square" stroke-linejoin="bevel" points="1690.49,2116.73 1740.21,2116.73"/>
<polyline class="Stem" fill="none" stroke="#000000" stroke-width="3.25" stroke-linecap="round" stroke-linejoin="bevel" points="376.693,687.037 376.693,604.233"/>
<polyline class="Stem" fill="none" stroke="#000000" stroke-width="3.25" stroke-linecap="round" stroke-linejoin="bevel" points="998.209,687.037 998.209,604.233"/>
<polyline class="Stem" fill="none" stroke="#000000" stroke-width="3.25" stroke-linecap="round" stroke-linejoin="bevel" points="1619.73,637.037 1619.73,557.358"/>
<polyline class="Stem" fill="none" stroke="#000000" stroke-width="3.25" stroke-linecap="round" stroke-linejoin="bevel" points="2241.24,637.037 2241.24,557.358"/>
<polyline class="Stem" fill="none" stroke="#000000" stroke-width="3.25" stroke-linecap="round" stroke-linejoin="bevel" points="314.459,1099.54 314.459,1022.98"/>
<polyline class="Stem" fill="none" stroke="#000000" stroke-width="3.25" stroke-linecap="round" stroke-linejoin="bevel" points="1022.32,1099.54 1022.32,1022.98"/>
<polyline class="Stem" fill="none" stroke="#000000" stroke-width="3.25" stroke-linecap="round" stroke-linejoin="bevel" points="1731.08,1112.89 1731.08,1032.36"/>
<polyline class="Stem" fill="none" stroke="#000000" stroke-width="3.25" stroke-linecap="round" stroke-linejoin="bevel" points="314.459,1599.54 314.459,1516.73"/>
<polyline class="Stem" fill="none" stroke="#000000" stroke-width="3.25" stroke-linecap="round" stroke-linejoin="bevel" points="951.534,1599.54 951.534,1516.73"/>
<polyline class="Stem" fill="none" stroke="#000000" stroke-width="3.25" stroke-linecap="round" stroke-linejoin="bevel" points="1588.61,1612.04 1588.61,1529.23"/>
<polyline class="Stem" fill="none" stroke="#000000" stroke-width="3.25" stroke-linecap="round" stroke-linejoin="bevel" points="2225.68,1612.04 2225.68,1529.23"/>
<polyline class="Stem" fill="none" stroke="#000000" stroke-width="3.25" stroke-linecap="round" stroke-linejoin="bevel" points="314.459,2099.54 314.459,2016.73"/>
<polyline class="Stem" fill="none" stroke="#000000" stroke-width="3.25" stroke-linecap="round" stroke-linejoin="bevel" points="1022.32,2099.54 1022.32,2016.73"/>
<polyline class="Stem" fill="none" stroke="#000000" stroke-width="3.25" stroke-linecap="round" stroke-linejoin="bevel" points="1731.08,2112.89 1731.08,2029.23"/>
<path class="Note" d="M367.377,677.963 C370.502,677.963 373.139,678.777 375.287,680.405 C377.305,682.162 378.315,684.376 378.315,687.045 C378.315,691.537 376.003,695.737 371.381,699.643 C366.693,703.549 361.68,705.502 356.342,705.502 C353.217,705.502 350.58,704.688 348.432,703.061 C346.413,701.303 345.404,699.089 345.404,696.42 C345.404,691.928 347.748,687.729 352.436,683.823 C356.993,679.916 361.973,677.963 367.377,677.963"/>
<path class="Note" d="M988.893,677.963 C992.018,677.963 994.655,678.777 996.803,680.405 C998.821,682.162 999.831,684.376 999.831,687.045 C999.831,691.537 997.519,695.737 992.897,699.643 C988.209,703.549 983.196,705.502 977.858,705.502 C974.733,705.502 972.096,704.688 969.948,703.061 C967.929,701.303 966.92,699.089 966.92,696.42 C966.92,691.928 969.264,687.729 973.952,683.823 C978.509,679.916 983.489,677.963 988.893,677.963"/>
<path class="Note" d="M1610.41,627.963 C1613.53,627.963 1616.17,628.777 1618.32,630.405 C1620.34,632.162 1621.35,634.376 1621.35,637.045 C1621.35,641.537 1619.04,645.737 1614.41,649.643 C1609.73,653.549 1604.71,655.502 1599.37,655.502 C1596.25,655.502 1593.61,654.688 1591.46,653.061 C1589.45,651.303 1588.44,649.089 1588.44,646.42 C1588.44,641.928 1590.78,637.729 1595.47,633.823 C1600.02,629.916 1605.01,627.963 1610.41,627.963"/>
<path class="Note" d="M2231.93,627.963 C2235.05,627.963 2237.69,628.777 2239.84,630.405 C2241.85,632.162 2242.86,634.376 2242.86,637.045 C2242.86,641.537 2240.55,645.737 2235.93,649.643 C2231.24,653.549 2226.23,655.502 2220.89,655.502 C2217.76,655.502 2215.13,654.688 2212.98,653.061 C2210.96,651.303 2209.95,649.089 2209.95,646.42 C2209.95,641.928 2212.3,637.729 2216.98,633.823 C2221.54,629.916 2226.52,627.963 2231.93,627.963"/>
<path class="Note" d="M305.143,1090.46 C308.268,1090.46 310.904,1091.28 313.053,1092.9 C315.071,1094.66 316.08,1096.88 316.08,1099.55 C316.08,1104.04 313.769,1108.24 309.147,1112.14 C304.459,1116.05 299.446,1118 294.107,1118 C290.982,1118 288.346,1117.19 286.197,1115.56 C284.179,1113.8 283.17,1111.59 283.17,1108.92 C283.17,1104.43 285.514,1100.23 290.201,1096.32 C294.758,1092.42 299.739,1090.46 305.143,1090.46"/>
<path class="Note" d="M1013,1090.46 C1016.13,1090.46 1018.76,1091.28 1020.91,1092.9 C1022.93,1094.66 1023.94,1096.88 1023.94,1099.55 C1023.94,1104.04 1021.63,1108.24 1017.01,1112.14 C1012.32,1116.05 1007.31,1118 1001.97,1118 C998.843,1118 996.206,1117.19 994.058,1115.56 C992.04,1113.8 991.031,1111.59 991.031,1108.92 C991.031,1104.43 993.374,1100.23 998.062,1096.32 C1002.62,1092.42 1007.6,1090.46 1013,1090.46"/>
<path class="Note" d="M1729.53,1110.19 C1729.53,1109.08 1729.11,1108.14 1728.26,1107.36 C1727.42,1106.51 1726.44,1106.09 1725.33,1106.09 C1723.38,1106.09 1719.44,1108.04 1713.52,1111.95 C1707.4,1115.92 1703.65,1118.75 1702.29,1120.44 C1701.57,1121.36 1701.21,1122.3 1701.21,1123.28 C1701.21,1124.38 1701.63,1125.33 1702.48,1126.11 C1703.26,1126.95 1704.24,1127.38 1705.41,1127.38 C1707.3,1127.38 1711.27,1125.42 1717.32,1121.52 C1723.31,1117.61 1727.03,1114.78 1728.46,1113.02 C1729.17,1112.18 1729.53,1111.23 1729.53,1110.19 M1724.36,1102.96 C1729.96,1102.96 1732.75,1105.37 1732.75,1110.19 C1732.75,1112.53 1732.07,1115.27 1730.7,1118.39 C1729.34,1121.45 1727.51,1123.8 1725.24,1125.42 C1720.22,1128.81 1713.94,1130.5 1706.39,1130.5 C1700.79,1130.5 1697.99,1128.09 1697.99,1123.28 C1697.99,1121.13 1698.67,1118.43 1700.04,1115.17 C1701.34,1112.05 1703.16,1109.67 1705.51,1108.04 C1710.52,1104.66 1716.8,1102.96 1724.36,1102.96"/>
<path class="Note" d="M305.143,1590.46 C308.268,1590.46 310.904,1591.28 313.053,1592.91 C315.071,1594.66 316.08,1596.88 316.08,1599.55 C316.08,1604.04 313.769,1608.24 309.147,1612.14 C304.459,1616.05 299.446,1618 294.107,1618 C290.982,1618 288.346,1617.19 286.197,1615.56 C284.179,1613.8 283.17,1611.59 283.17,1608.92 C283.17,1604.43 285.514,1600.23 290.201,1596.32 C294.758,1592.42 299.739,1590.46 305.143,1590.46"/>
<path class="Note" d="M942.217,1590.46 C945.342,1590.46 947.979,1591.28 950.127,1592.91 C952.146,1594.66 953.155,1596.88 953.155,1599.55 C953.155,1604.04 950.844,1608.24 946.221,1612.14 C941.534,1616.05 936.521,1618 931.182,1618 C928.057,1618 925.42,1617.19 923.272,1615.56 C921.254,1613.8 920.245,1611.59 920.245,1608.92 C920.245,1604.43 922.588,1600.23 927.276,1596.32 C931.833,1592.42 936.814,1590.46 942.217,1590.46"/>
<path class="Note" d="M1579.29,1602.96 C1582.42,1602.96 1585.05,1603.78 1587.2,1605.41 C1589.22,1607.16 1590.23,1609.38 1590.23,1612.05 C1590.23,1616.54 1587.92,1620.74 1583.3,1624.64 C1578.61,1628.55 1573.6,1630.5 1568.26,1630.5 C1565.13,1630.5 1562.49,1629.69 1560.35,1628.06 C1558.33,1626.3 1557.32,1624.09 1557.32,1621.42 C1557.32,1616.93 1559.66,1612.73 1564.35,1608.82 C1568.91,1604.92 1573.89,1602.96 1579.29,1602.96"/>
<path class="Note" d="M2216.37,1602.96 C2219.49,1602.96 2222.13,1603.78 2224.28,1605.41 C2226.29,1607.16 2227.3,1609.38 2227.3,1612.05 C2227.3,1616.54 2224.99,1620.74 2220.37,1624.64 C2215.68,1628.55 2210.67,1630.5 2205.33,1630.5 C2202.21,1630.5 2199.57,1629.69 2197.42,1628.06 C2195.4,1626.3 2194.39,1624.09 2194.39,1621.42 C2194.39,1616.93 2196.74,1612.73 2201.43,1608.82 C2205.98,1604.92 2210.96,1602.96 2216.37,1602.96"/>
<path class="Note" d="M305.143,2090.46 C308.268,2090.46 310.904,2091.28 313.053,2092.91 C315.071,2094.66 316.08,2096.88 316.08,2099.55 C316.08,2104.04 313.769,2108.24 309.147,2112.14 C304.459,2116.05 299.446,2118 294.107,2118 C290.982,2118 288.346,2117.19 286.197,2115.56 C284.179,2113.8 283.17,2111.59 283.17,2108.92 C283.17,2104.43 285.514,2100.23 290.201,2096.32 C294.758,2092.42 299.739,2090.46 305.143,2090.46"/>
<path class="Note" d="M1013,2090.46 C1016.13,2090.46 1018.76,2091.28 1020.91,2092.91 C1022.93,2094.66 1023.94,2096.88 1023.94,2099.55 C1023.94,2104.04 1021.63,2108.24 1017.01,2112.14 C1012.32,2116.05 1007.31,2118 1001.97,2118 C998.843,2118 996.206,2117.19 994.058,2115.56 C992.04,2113.8 991.031,2111.59 991.031,2108.92 C991.031,2104.43 993.374,2100.23 998.062,2096.32 C1002.62,2092.42 1007.6,2090.46 1013,2090.46"/>
<path class="Note" d="M1729.53,2110.19 C1729.53,2109.08 1729.11,2108.14 1728.26,2107.36 C1727.42,2106.51 1726.44,2106.09 1725.33,2106.09 C1723.38,2106.09 1719.44,2108.04 1713.52,2111.95 C1707.4,2115.92 1703.65,2118.75 1702.29,2120.44 C1701.57,2121.36 1701.21,2122.3 1701.21,2123.28 C1701.21,2124.38 1701.63,2125.33 1702.48,2126.11 C1703.26,2126.95 1704.24,2127.38 1705.41,2127.38 C1707.3,2127.38 1711.27,2125.43 1717.32,2121.52 C1723.31,2117.61 1727.03,2114.78 1728.46,2113.02 C1729.17,2112.18 1729.53,2111.23 1729.53,2110.19 M1724.36,2102.96 C1729.96,2102.96 1732.75,2105.37 1732.75,2110.19 C1732.75,2112.53 1732.07,2115.27 1730.7,2118.39 C1729.34,2121.45 1727.51,2123.8 1725.24,2125.43 C1720.22,2128.81 1713.94,2130.5 1706.39,2130.5 C1700.79,2130.5 1697.99,2128.09 1697.99,2123.28 C1697.99,2121.13 1698.67,2118.43 1700.04,2115.17 C1701.34,2112.05 1703.16,2109.67 1705.51,2108.04 C1710.52,2104.66 1716.8,2102.96 1724.36,2102.96"/>
<path class="Clef" d="M194.451,616.147 C194.451,616.147 194.646,616.147 195.037,616.147 C195.297,616.082 195.525,616.049 195.721,616.049 C203.012,616.049 209.002,618.621 213.689,623.764 C218.377,628.842 220.721,634.767 220.721,641.537 C220.721,649.936 217.238,656.772 210.271,662.045 C208.449,663.477 206.072,664.649 203.143,665.561 C203.468,669.793 203.631,673.211 203.631,675.815 C203.631,676.336 203.566,678.224 203.435,681.479 C203.175,687.533 201.092,692.774 197.185,697.201 C193.409,701.563 188.722,703.744 183.123,703.744 C177.85,703.744 173.357,701.889 169.646,698.178 C165.935,694.402 164.08,689.845 164.08,684.506 C164.08,681.707 165.154,679.33 167.303,677.377 C169.516,675.424 172.088,674.448 175.018,674.448 C177.622,674.448 179.803,675.457 181.56,677.475 C183.383,679.363 184.295,681.707 184.295,684.506 C184.295,687.045 183.383,689.226 181.56,691.049 C179.738,692.872 177.557,693.783 175.018,693.783 C173.976,693.783 172.967,693.588 171.99,693.198 C174.855,697.429 178.663,699.545 183.416,699.545 C187.908,699.545 191.587,697.722 194.451,694.076 C197.446,690.3 199.074,685.906 199.334,680.893 C199.464,677.768 199.529,675.977 199.529,675.522 C199.529,671.876 199.399,668.881 199.139,666.537 C195.883,667.058 192.986,667.319 190.447,667.319 C181.398,667.319 173.683,663.738 167.303,656.576 C161.053,649.35 157.928,640.756 157.928,630.795 C157.928,628.712 158.123,626.596 158.514,624.448 C158.904,622.69 159.393,620.769 159.978,618.686 C160.304,617.514 161.183,615.626 162.615,613.022 C163.136,612.24 163.722,611.264 164.373,610.092 C165.024,608.92 165.48,608.139 165.74,607.748 C166.391,606.446 167.661,604.688 169.549,602.475 C170.07,601.889 170.607,601.238 171.16,600.522 C171.713,599.806 172.185,599.22 172.576,598.764 C172.967,598.308 173.26,597.95 173.455,597.69 C173.65,597.429 175.115,595.704 177.85,592.514 C178.501,591.863 179.135,591.163 179.754,590.414 C180.372,589.666 180.877,589.08 181.268,588.657 C181.658,588.233 181.951,587.924 182.146,587.729 C179.803,579.981 178.338,573.796 177.752,569.174 C177.296,565.463 177.068,560.385 177.068,553.94 C177.068,548.276 178.37,542.97 180.975,538.022 C183.514,532.879 187.062,528.679 191.619,525.424 C191.88,525.229 192.205,525.131 192.596,525.131 C193.051,525.131 193.377,525.229 193.572,525.424 C197.088,529.656 200.115,535.157 202.654,541.928 C205.258,548.699 206.56,554.851 206.56,560.385 C206.56,566.635 205.063,572.494 202.068,577.963 C198.683,583.757 194.321,589.747 188.982,595.932 C190.35,600.229 192.172,606.967 194.451,616.147 M202.752,661.557 C206.137,660.32 208.774,658.204 210.662,655.209 C212.745,652.345 213.787,649.122 213.787,645.541 C213.787,640.919 212.225,636.817 209.1,633.237 C205.909,629.526 201.84,627.442 196.893,626.987 C199.692,640.724 201.645,652.247 202.752,661.557 M164.959,638.998 C164.959,645.444 167.563,651.108 172.771,655.99 C178.11,660.743 184.1,663.119 190.74,663.119 C193.475,663.119 196.144,662.924 198.748,662.533 C197.706,652.638 195.656,640.789 192.596,626.987 C188.885,627.377 185.922,628.679 183.709,630.893 C181.56,633.171 180.486,635.743 180.486,638.608 C180.486,643.556 183.123,647.559 188.396,650.619 C188.852,651.075 189.08,651.563 189.08,652.084 C189.08,652.605 188.852,653.093 188.396,653.549 C188.006,654.005 187.518,654.233 186.932,654.233 C186.866,654.233 186.574,654.168 186.053,654.037 C182.342,652.019 179.477,649.415 177.459,646.225 C175.571,642.839 174.627,639.421 174.627,635.971 C174.627,631.479 176.027,627.41 178.826,623.764 C181.756,620.118 185.564,617.774 190.252,616.733 C188.429,609.441 186.932,603.744 185.76,599.643 C184.718,600.815 183.465,602.231 182,603.891 C180.535,605.551 179.672,606.544 179.412,606.869 C177.068,609.929 175.278,612.306 174.041,613.998 C171.827,617.058 170.2,619.695 169.158,621.908 C168.051,624.382 167.075,627.084 166.228,630.014 C165.382,632.813 164.959,635.808 164.959,638.998 M197.576,539.682 C192.693,542.091 188.852,545.541 186.053,550.033 C183.188,554.656 181.756,559.636 181.756,564.975 C181.756,569.662 182.928,575.977 185.271,583.92 C189.959,578.256 193.475,573.015 195.818,568.198 C198.292,563.119 199.529,557.813 199.529,552.28 C199.529,548.113 198.878,543.914 197.576,539.682"/>
<path class="Clef" d="M194.451,1091.15 C194.451,1091.15 194.646,1091.15 195.037,1091.15 C195.297,1091.08 195.525,1091.05 195.721,1091.05 C203.012,1091.05 209.002,1093.62 213.689,1098.76 C218.377,1103.84 220.721,1109.77 220.721,1116.54 C220.721,1124.94 217.238,1131.77 210.271,1137.05 C208.449,1138.48 206.072,1139.65 203.143,1140.56 C203.468,1144.79 203.631,1148.21 203.631,1150.82 C203.631,1151.34 203.566,1153.22 203.435,1156.48 C203.175,1162.53 201.092,1167.77 197.185,1172.2 C193.409,1176.56 188.722,1178.74 183.123,1178.74 C177.85,1178.74 173.357,1176.89 169.646,1173.18 C165.935,1169.4 164.08,1164.84 164.08,1159.51 C164.08,1156.71 165.154,1154.33 167.303,1152.38 C169.516,1150.42 172.088,1149.45 175.018,1149.45 C177.622,1149.45 179.803,1150.46 181.56,1152.48 C183.383,1154.36 184.295,1156.71 184.295,1159.51 C184.295,1162.05 183.383,1164.23 181.56,1166.05 C179.738,1167.87 177.557,1168.78 175.018,1168.78 C173.976,1168.78 172.967,1168.59 171.99,1168.2 C174.855,1172.43 178.663,1174.55 183.416,1174.55 C187.908,1174.55 191.587,1172.72 194.451,1169.08 C197.446,1165.3 199.074,1160.91 199.334,1155.89 C199.464,1152.77 199.529,1150.98 199.529,1150.52 C199.529,1146.88 199.399,1143.88 199.139,1141.54 C195.883,1142.06 192.986,1142.32 190.447,1142.32 C181.398,1142.32 173.683,1138.74 167.303,1131.58 C161.053,1124.35 157.928,1115.76 157.928,1105.8 C157.928,1103.71 158.123,1101.6 158.514,1099.45 C158.904,1097.69 159.393,1095.77 159.978,1093.69 C160.304,1092.51 161.183,1090.63 162.615,1088.02 C163.136,1087.24 163.722,1086.26 164.373,1085.09 C165.024,1083.92 165.48,1083.14 165.74,1082.75 C166.391,1081.45 167.661,1079.69 169.549,1077.48 C170.07,1076.89 170.607,1076.24 171.16,1075.52 C171.713,1074.81 172.185,1074.22 172.576,1073.76 C172.967,1073.31 173.26,1072.95 173.455,1072.69 C173.65,1072.43 175.115,1070.7 177.85,1067.51 C178.501,1066.86 179.135,1066.16 179.754,1065.41 C180.372,1064.67 180.877,1064.08 181.268,1063.66 C181.658,1063.23 181.951,1062.92 182.146,1062.73 C179.803,1054.98 178.338,1048.8 177.752,1044.17 C177.296,1040.46 177.068,1035.39 177.068,1028.94 C177.068,1023.28 178.37,1017.97 180.975,1013.02 C183.514,1007.88 187.062,1003.68 191.619,1000.42 C191.88,1000.23 192.205,1000.13 192.596,1000.13 C193.051,1000.13 193.377,1000.23 193.572,1000.42 C197.088,1004.66 200.115,1010.16 202.654,1016.93 C205.258,1023.7 206.56,1029.85 206.56,1035.39 C206.56,1041.64 205.063,1047.49 202.068,1052.96 C198.683,1058.76 194.321,1064.75 188.982,1070.93 C190.35,1075.23 192.172,1081.97 194.451,1091.15 M202.752,1136.56 C206.137,1135.32 208.774,1133.2 210.662,1130.21 C212.745,1127.34 213.787,1124.12 213.787,1120.54 C213.787,1115.92 212.225,1111.82 209.1,1108.24 C205.909,1104.53 201.84,1102.44 196.893,1101.99 C199.692,1115.72 201.645,1127.25 202.752,1136.56 M164.959,1114 C164.959,1120.44 167.563,1126.11 172.771,1130.99 C178.11,1135.74 184.1,1138.12 190.74,1138.12 C193.475,1138.12 196.144,1137.92 198.748,1137.53 C197.706,1127.64 195.656,1115.79 192.596,1101.99 C188.885,1102.38 185.922,1103.68 183.709,1105.89 C181.56,1108.17 180.486,1110.74 180.486,1113.61 C180.486,1118.56 183.123,1122.56 188.396,1125.62 C188.852,1126.08 189.08,1126.56 189.08,1127.08 C189.08,1127.61 188.852,1128.09 188.396,1128.55 C188.006,1129.01 187.518,1129.23 186.932,1129.23 C186.866,1129.23 186.574,1129.17 186.053,1129.04 C182.342,1127.02 179.477,1124.42 177.459,1121.23 C175.571,1117.84 174.627,1114.42 174.627,1110.97 C174.627,1106.48 176.027,1102.41 178.826,1098.76 C181.756,1095.12 185.564,1092.77 190.252,1091.73 C188.429,1084.44 186.932,1078.74 185.76,1074.64 C184.718,1075.82 183.465,1077.23 182,1078.89 C180.535,1080.55 179.672,1081.54 179.412,1081.87 C177.068,1084.93 175.278,1087.31 174.041,1089 C171.827,1092.06 170.2,1094.7 169.158,1096.91 C168.051,1099.38 167.075,1102.08 166.228,1105.01 C165.382,1107.81 164.959,1110.81 164.959,1114 M197.576,1014.68 C192.693,1017.09 188.852,1020.54 186.053,1025.03 C183.188,1029.66 181.756,1034.64 181.756,1039.98 C181.756,1044.66 182.928,1050.98 185.271,1058.92 C189.959,1053.26 193.475,1048.02 195.818,1043.2 C198.292,1038.12 199.529,1032.81 199.529,1027.28 C199.529,1023.11 198.878,1018.91 197.576,1014.68"/>
<path class="Clef" d="M194.451,1566.15 C194.451,1566.15 194.646,1566.15 195.037,1566.15 C195.297,1566.08 195.525,1566.05 195.721,1566.05 C203.012,1566.05 209.002,1568.62 213.689,1573.76 C218.377,1578.84 220.721,1584.77 220.721,1591.54 C220.721,1599.94 217.238,1606.77 210.271,1612.05 C208.449,1613.48 206.072,1614.65 203.143,1615.56 C203.468,1619.79 203.631,1623.21 203.631,1625.82 C203.631,1626.34 203.566,1628.22 203.435,1631.48 C203.175,1637.53 201.092,1642.77 197.185,1647.2 C193.409,1651.56 188.722,1653.74 183.123,1653.74 C177.85,1653.74 173.357,1651.89 169.646,1648.18 C165.935,1644.4 164.08,1639.85 164.08,1634.51 C164.08,1631.71 165.154,1629.33 167.303,1627.38 C169.516,1625.42 172.088,1624.45 175.018,1624.45 C177.622,1624.45 179.803,1625.46 181.56,1627.48 C183.383,1629.36 184.295,1631.71 184.295,1634.51 C184.295,1637.05 183.383,1639.23 181.56,1641.05 C179.738,1642.87 177.557,1643.78 175.018,1643.78 C173.976,1643.78 172.967,1643.59 171.99,1643.2 C174.855,1647.43 178.663,1649.55 183.416,1649.55 C187.908,1649.55 191.587,1647.72 194.451,1644.08 C197.446,1640.3 199.074,1635.91 199.334,1630.89 C199.464,1627.77 199.529,1625.98 199.529,1625.52 C199.529,1621.88 199.399,1618.88 199.139,1616.54 C195.883,1617.06 192.986,1617.32 190.447,1617.32 C181.398,1617.32 173.683,1613.74 167.303,1606.58 C161.053,1599.35 157.928,1590.76 157.928,1580.8 C157.928,1578.71 158.123,1576.6 158.514,1574.45 C158.904,1572.69 159.393,1570.77 159.978,1568.69 C160.304,1567.51 161.183,1565.63 162.615,1563.02 C163.136,1562.24 163.722,1561.26 164.373,1560.09 C165.024,1558.92 165.48,1558.14 165.74,1557.75 C166.391,1556.45 167.661,1554.69 169.549,1552.48 C170.07,1551.89 170.607,1551.24 171.16,1550.52 C171.713,1549.81 172.185,1549.22 172.576,1548.76 C172.967,1548.31 173.26,1547.95 173.455,1547.69 C173.65,1547.43 175.115,1545.7 177.85,1542.51 C178.501,1541.86 179.135,1541.16 179.754,1540.41 C180.372,1539.67 180.877,1539.08 181.268,1538.66 C181.658,1538.23 181.951,1537.92 182.146,1537.73 C179.803,1529.98 178.338,1523.8 177.752,1519.17 C177.296,1515.46 177.068,1510.39 177.068,1503.94 C177.068,1498.28 178.37,1492.97 180.975,1488.02 C183.514,1482.88 187.062,1478.68 191.619,1475.42 C191.88,1475.23 192.205,1475.13 192.596,1475.13 C193.051,1475.13 193.377,1475.23 193.572,1475.42 C197.088,1479.66 200.115,1485.16 202.654,1491.93 C205.258,1498.7 206.56,1504.85 206.56,1510.39 C206.56,1516.64 205.063,1522.49 202.068,1527.96 C198.683,1533.76 194.321,1539.75 188.982,1545.93 C190.35,1550.23 192.172,1556.97 194.451,1566.15 M202.752,1611.56 C206.137,1610.32 208.774,1608.2 210.662,1605.21 C212.745,1602.35 213.787,1599.12 213.787,1595.54 C213.787,1590.92 212.225,1586.82 209.1,1583.24 C205.909,1579.53 201.84,1577.44 196.893,1576.99 C199.692,1590.72 201.645,1602.25 202.752,1611.56 M164.959,1589 C164.959,1595.44 167.563,1601.11 172.771,1605.99 C178.11,1610.74 184.1,1613.12 190.74,1613.12 C193.475,1613.12 196.144,1612.92 198.748,1612.53 C197.706,1602.64 195.656,1590.79 192.596,1576.99 C188.885,1577.38 185.922,1578.68 183.709,1580.89 C181.56,1583.17 180.486,1585.74 180.486,1588.61 C180.486,1593.56 183.123,1597.56 188.396,1600.62 C188.852,1601.08 189.08,1601.56 189.08,1602.08 C189.08,1602.61 188.852,1603.09 188.396,1603.55 C188.006,1604.01 187.518,1604.23 186.932,1604.23 C186.866,1604.23 186.574,1604.17 186.053,1604.04 C182.342,1602.02 179.477,1599.42 177.459,1596.23 C175.571,1592.84 174.627,1589.42 174.627,1585.97 C174.627,1581.48 176.027,1577.41 178.826,1573.76 C181.756,1570.12 185.564,1567.77 190.252,1566.73 C188.429,1559.44 186.932,1553.74 185.76,1549.64 C184.718,1550.82 183.465,1552.23 182,1553.89 C180.535,1555.55 179.672,1556.54 179.412,1556.87 C177.068,1559.93 175.278,1562.31 174.041,1564 C171.827,1567.06 170.2,1569.7 169.158,1571.91 C168.051,1574.38 167.075,1577.08 166.228,1580.01 C165.382,1582.81 164.959,1585.81 164.959,1589 M197.576,1489.68 C192.693,1492.09 188.852,1495.54 186.053,1500.03 C183.188,1504.66 181.756,1509.64 181.756,1514.98 C181.756,1519.66 182.928,1525.98 185.271,1533.92 C189.959,1528.26 193.475,1523.02 195.818,1518.2 C198.292,1513.12 199.529,1507.81 199.529,1502.28 C199.529,1498.11 198.878,1493.91 197.576,1489.68"/>
<path class="Clef" d="M194.451,2041.15 C194.451,2041.15 194.646,2041.15 195.037,2041.15 C195.297,2041.08 195.525,2041.05 195.721,2041.05 C203.012,2041.05 209.002,2043.62 213.689,2048.76 C218.377,2053.84 220.721,2059.77 220.721,2066.54 C220.721,2074.94 217.238,2081.77 210.271,2087.05 C208.449,2088.48 206.072,2089.65 203.143,2090.56 C203.468,2094.79 203.631,2098.21 203.631,2100.82 C203.631,2101.34 203.566,2103.22 203.435,2106.48 C203.175,2112.53 201.092,2117.78 197.185,2122.2 C193.409,2126.56 188.722,2128.75 183.123,2128.75 C177.85,2128.75 173.357,2126.89 169.646,2123.18 C165.935,2119.4 164.08,2114.85 164.08,2109.51 C164.08,2106.71 165.154,2104.33 167.303,2102.38 C169.516,2100.42 172.088,2099.45 175.018,2099.45 C177.622,2099.45 179.803,2100.46 181.56,2102.48 C183.383,2104.36 184.295,2106.71 184.295,2109.51 C184.295,2112.05 183.383,2114.23 181.56,2116.05 C179.738,2117.87 177.557,2118.78 175.018,2118.78 C173.976,2118.78 172.967,2118.59 171.99,2118.2 C174.855,2122.43 178.663,2124.55 183.416,2124.55 C187.908,2124.55 191.587,2122.72 194.451,2119.08 C197.446,2115.3 199.074,2110.91 199.334,2105.89 C199.464,2102.77 199.529,2100.98 199.529,2100.52 C199.529,2096.88 199.399,2093.88 199.139,2091.54 C195.883,2092.06 192.986,2092.32 190.447,2092.32 C181.398,2092.32 173.683,2088.74 167.303,2081.58 C161.053,2074.35 157.928,2065.76 157.928,2055.8 C157.928,2053.71 158.123,2051.6 158.514,2049.45 C158.904,2047.69 159.393,2045.77 159.978,2043.69 C160.304,2042.51 161.183,2040.63 162.615,2038.02 C163.136,2037.24 163.722,2036.26 164.373,2035.09 C165.024,2033.92 165.48,2033.14 165.74,2032.75 C166.391,2031.45 167.661,2029.69 169.549,2027.48 C170.07,2026.89 170.607,2026.24 171.16,2025.52 C171.713,2024.81 172.185,2024.22 172.576,2023.76 C172.967,2023.31 173.26,2022.95 173.455,2022.69 C173.65,2022.43 175.115,2020.7 177.85,2017.51 C178.501,2016.86 179.135,2016.16 179.754,2015.42 C180.372,2014.67 180.877,2014.08 181.268,2013.66 C181.658,2013.23 181.951,2012.92 182.146,2012.73 C179.803,2004.98 178.338,1998.8 177.752,1994.17 C177.296,1990.46 177.068,1985.39 177.068,1978.94 C177.068,1973.28 178.37,1967.97 180.975,1963.02 C183.514,1957.88 187.062,1953.68 191.619,1950.42 C191.88,1950.23 192.205,1950.13 192.596,1950.13 C193.051,1950.13 193.377,1950.23 193.572,1950.42 C197.088,1954.66 200.115,1960.16 202.654,1966.93 C205.258,1973.7 206.56,1979.85 206.56,1985.39 C206.56,1991.64 205.063,1997.5 202.068,2002.96 C198.683,2008.76 194.321,2014.75 188.982,2020.93 C190.35,2025.23 192.172,2031.97 194.451,2041.15 M202.752,2086.56 C206.137,2085.32 208.774,2083.2 210.662,2080.21 C212.745,2077.35 213.787,2074.12 213.787,2070.54 C213.787,2065.92 212.225,2061.82 209.1,2058.24 C205.909,2054.53 201.84,2052.44 196.893,2051.99 C199.692,2065.72 201.645,2077.25 202.752,2086.56 M164.959,2064 C164.959,2070.44 167.563,2076.11 172.771,2080.99 C178.11,2085.74 184.1,2088.12 190.74,2088.12 C193.475,2088.12 196.144,2087.92 198.748,2087.53 C197.706,2077.64 195.656,2065.79 192.596,2051.99 C188.885,2052.38 185.922,2053.68 183.709,2055.89 C181.56,2058.17 180.486,2060.74 180.486,2063.61 C180.486,2068.56 183.123,2072.56 188.396,2075.62 C188.852,2076.08 189.08,2076.56 189.08,2077.09 C189.08,2077.61 188.852,2078.09 188.396,2078.55 C188.006,2079.01 187.518,2079.23 186.932,2079.23 C186.866,2079.23 186.574,2079.17 186.053,2079.04 C182.342,2077.02 179.477,2074.42 177.459,2071.23 C175.571,2067.84 174.627,2064.42 174.627,2060.97 C174.627,2056.48 176.027,2052.41 178.826,2048.76 C181.756,2045.12 185.564,2042.78 190.252,2041.73 C188.429,2034.44 186.932,2028.75 185.76,2024.64 C184.718,2025.82 183.465,2027.23 182,2028.89 C180.535,2030.55 179.672,2031.54 179.412,2031.87 C177.068,2034.93 175.278,2037.31 174.041,2039 C171.827,2042.06 170.2,2044.7 169.158,2046.91 C168.051,2049.38 167.075,2052.09 166.228,2055.01 C165.382,2057.81 164.959,2060.81 164.959,2064 M197.576,1964.68 C192.693,1967.09 188.852,1970.54 186.053,1975.03 C183.188,1979.66 181.756,1984.64 181.756,1989.98 C181.756,1994.66 182.928,2000.98 185.271,2008.92 C189.959,2003.26 193.475,1998.02 195.818,1993.2 C198.292,1988.12 199.529,1982.81 199.529,1977.28 C199.529,1973.11 198.878,1968.91 197.576,1964.68"/>
<path class="TimeSig" d="M268.459,567.916 C270.412,567.916 272.072,567.688 273.439,567.233 C274.807,566.777 275.686,566.549 276.076,566.549 C276.532,566.549 276.89,566.679 277.15,566.94 C277.346,567.135 277.476,567.363 277.541,567.623 C277.541,567.753 277.476,567.949 277.346,568.209 L248.928,601.217 L265.627,601.217 L265.627,588.131 C265.627,587.285 265.855,586.569 266.311,585.983 C267.092,585.332 267.743,584.941 268.264,584.811 C269.11,584.42 270.152,583.509 271.389,582.076 C272.43,580.905 273.667,578.854 275.1,575.924 C275.295,575.533 275.588,575.338 275.979,575.338 C276.76,575.338 277.215,575.794 277.346,576.705 L277.346,601.217 L284.475,601.217 C285.386,601.217 285.907,601.705 286.037,602.682 C286.037,603.658 285.516,604.147 284.475,604.147 L277.346,604.147 L277.346,604.928 C277.346,607.532 277.997,609.746 279.299,611.569 C280.796,613.391 282.554,614.303 284.572,614.303 C285.354,614.303 285.744,614.694 285.744,615.475 C285.744,616.256 285.354,616.647 284.572,616.647 C283.205,616.647 280.992,616.451 277.932,616.061 C275.132,615.605 272.951,615.377 271.389,615.377 C269.761,615.377 267.58,615.605 264.846,616.061 C261.916,616.451 259.735,616.647 258.303,616.647 C257.521,616.647 257.131,616.256 257.131,615.475 C257.131,614.694 257.521,614.303 258.303,614.303 C260.321,614.303 262.079,613.391 263.576,611.569 C264.943,609.681 265.627,607.467 265.627,604.928 L265.627,604.147 L248.928,604.147 C247.821,604.147 247.04,603.886 246.584,603.365 C246.063,602.975 245.803,602.454 245.803,601.803 C245.803,601.608 246.291,600.924 247.268,599.752 C248.374,598.45 249.546,596.855 250.783,594.967 C252.215,592.753 253.583,590.475 254.885,588.131 C256.317,585.462 257.456,582.402 258.303,578.951 C259.279,575.436 259.768,571.855 259.768,568.209 C259.768,567.168 260.223,566.647 261.135,566.647 C261.33,566.647 261.753,566.744 262.404,566.94 C262.6,567.005 263.007,567.102 263.625,567.233 C264.243,567.363 264.748,567.493 265.139,567.623 C266.311,567.819 267.417,567.916 268.459,567.916"/>
<path class="TimeSig" d="M268.459,618.088 C270.412,618.088 272.072,617.86 273.439,617.405 C274.807,616.949 275.686,616.721 276.076,616.721 C276.532,616.721 276.89,616.851 277.15,617.112 C277.346,617.307 277.476,617.535 277.541,617.795 C277.541,617.925 277.476,618.121 277.346,618.381 L248.928,651.389 L265.627,651.389 L265.627,638.303 C265.627,637.457 265.855,636.74 266.311,636.155 C267.092,635.504 267.743,635.113 268.264,634.983 C269.11,634.592 270.152,633.681 271.389,632.248 C272.43,631.076 273.667,629.026 275.1,626.096 C275.295,625.705 275.588,625.51 275.979,625.51 C276.76,625.51 277.215,625.966 277.346,626.877 L277.346,651.389 L284.475,651.389 C285.386,651.389 285.907,651.877 286.037,652.854 C286.037,653.83 285.516,654.319 284.475,654.319 L277.346,654.319 L277.346,655.1 C277.346,657.704 277.997,659.918 279.299,661.74 C280.796,663.563 282.554,664.475 284.572,664.475 C285.354,664.475 285.744,664.865 285.744,665.647 C285.744,666.428 285.354,666.819 284.572,666.819 C283.205,666.819 280.992,666.623 277.932,666.233 C275.132,665.777 272.951,665.549 271.389,665.549 C269.761,665.549 267.58,665.777 264.846,666.233 C261.916,666.623 259.735,666.819 258.303,666.819 C257.521,666.819 257.131,666.428 257.131,665.647 C257.131,664.865 257.521,664.475 258.303,664.475 C260.321,664.475 262.079,663.563 263.576,661.74 C264.943,659.852 265.627,657.639 265.627,655.1 L265.627,654.319 L248.928,654.319 C247.821,654.319 247.04,654.058 246.584,653.537 C246.063,653.147 245.803,652.626 245.803,651.975 C245.803,651.78 246.291,651.096 247.268,649.924 C248.374,648.622 249.546,647.027 250.783,645.139 C252.215,642.925 253.583,640.647 254.885,638.303 C256.317,635.634 257.456,632.574 258.303,629.123 C259.279,625.608 259.768,622.027 259.768,618.381 C259.768,617.339 260.223,616.819 261.135,616.819 C261.33,616.819 261.753,616.916 262.404,617.112 C262.6,617.177 263.007,617.274 263.625,617.405 C264.243,617.535 264.748,617.665 265.139,617.795 C266.311,617.99 267.417,618.088 268.459,618.088"/>
</svg>
