<?xml version="1.0" encoding="UTF-8" standalone="no"?>
<svg width="2977.2px" height="4208.4px" viewBox="0 0 2977.2 4208.4"
 xmlns="http://www.w3.org/2000/svg" xmlns:xlink="http://www.w3.org/1999/xlink" version="1.2" baseProfile="tiny">
<title>Twinkle_Twinkle_Little_Star (2)</title>
<desc>Generated by MuseScore 3.3.0</desc>
<polyline class="StaffLines" fill="none" stroke="#000000" stroke-width="2.00" stroke-linejoin="bevel" points="141.732,316.732 2835.47,316.732"/>
<polyline class="StaffLines" fill="none" stroke="#000000" stroke-width="2.00" stroke-linejoin="bevel" points="141.732,341.732 2835.47,341.732"/>
<polyline class="StaffLines" fill="none" stroke="#000000" stroke-width="2.00" stroke-linejoin="bevel" points="141.732,366.733 2835.47,366.733"/>
<polyline class="StaffLines" fill="none" stroke="#000000" stroke-width="2.00" stroke-linejoin="bevel" points="141.732,391.733 2835.47,391.733"/>
<polyline class="StaffLines" fill="none" stroke="#000000" stroke-width="2.00" stroke-linejoin="bevel" points="141.732,416.733 2835.47,416.733"/>
<polyline class="StaffLines" fill="none" stroke="#000000" stroke-width="2.00" stroke-linejoin="bevel" points="141.732,791.733 2835.47,791.733"/>
<polyline class="StaffLines" fill="none" stroke="#000000" stroke-width="2.00" stroke-linejoin="bevel" points="141.732,816.733 2835.47,816.733"/>
<polyline class="StaffLines" fill="none" stroke="#000000" stroke-width="2.00" stroke-linejoin="bevel" points="141.732,841.733 2835.47,841.733"/>
<polyline class="StaffLines" fill="none" stroke="#000000" stroke-width="2.00" stroke-linejoin="bevel" points="141.732,866.733 2835.47,866.733"/>
<polyline class="StaffLines" fill="none" stroke="#000000" stroke-width="2.00" stroke-linejoin="bevel" points="141.732,891.733 2835.47,891.733"/>
<polyline class="StaffLines" fill="none" stroke="#000000" stroke-width="2.00" stroke-linejoin="bevel" points="141.732,1266.73 2835.47,1266.73"/>
<polyline class="StaffLines" fill="none" stroke="#000000" stroke-width="2.00" stroke-linejoin="bevel" points="141.732,1291.73 2835.47,1291.73"/>
<polyline class="StaffLines" fill="none" stroke="#000000" stroke-width="2.00" stroke-linejoin="bevel" points="141.732,1316.73 2835.47,1316.73"/>
<polyline class="StaffLines" fill="none" stroke="#000000" stroke-width="2.00" stroke-linejoin="bevel" points="141.732,1341.73 2835.47,1341.73"/>
<polyline class="StaffLines" fill="none" stroke="#000000" stroke-width="2.00" stroke-linejoin="bevel" points="141.732,1366.73 2835.47,1366.73"/>
<polyline class="StaffLines" fill="none" stroke="#000000" stroke-width="2.00" stroke-linejoin="bevel" points="141.732,1741.73 2835.47,1741.73"/>
<polyline class="StaffLines" fill="none" stroke="#000000" stroke-width="2.00" stroke-linejoin="bevel" points="141.732,1766.73 2835.47,1766.73"/>
<polyline class="StaffLines" fill="none" stroke="#000000" stroke-width="2.00" stroke-linejoin="bevel" points="141.732,1791.73 2835.47,1791.73"/>
<polyline class="StaffLines" fill="none" stroke="#000000" stroke-width="2.00" stroke-linejoin="bevel" points="141.732,1816.73 2835.47,1816.73"/>
<polyline class="StaffLines" fill="none" stroke="#000000" stroke-width="2.00" stroke-linejoin="bevel" points="141.732,1841.73 2835.47,1841.73"/>
<path class="MeasureNumber" d="M146.637,258.972 C146.637,257.559 146.324,256.306 145.697,255.212 C145.071,254.119 144.311,253.272 143.417,252.672 C142.524,252.072 141.524,251.579 140.417,251.192 C139.311,250.806 138.351,250.552 137.537,250.432 C136.724,250.312 136.011,250.252 135.397,250.252 C135.077,250.252 134.917,250.146 134.917,249.932 C134.917,249.852 134.931,249.786 134.957,249.732 L139.317,240.252 L147.677,240.252 C148.104,240.252 148.444,240.186 148.697,240.052 C148.951,239.919 149.224,239.639 149.517,239.212 L149.877,239.492 L148.357,243.052 C148.251,243.292 147.944,243.412 147.437,243.412 L139.597,243.412 L137.917,246.812 C141.811,247.506 144.704,248.632 146.597,250.192 C148.491,251.752 149.437,254.039 149.437,257.052 C149.437,258.626 149.191,260.026 148.697,261.252 C148.204,262.479 147.577,263.466 146.817,264.212 C146.057,264.959 145.177,265.572 144.177,266.052 C143.177,266.532 142.217,266.859 141.297,267.032 C140.377,267.206 139.451,267.292 138.517,267.292 C137.024,267.292 135.837,267.072 134.957,266.632 C134.077,266.192 133.637,265.586 133.637,264.812 C133.637,263.826 134.211,263.332 135.357,263.332 C136.104,263.332 137.071,263.746 138.257,264.572 C139.444,265.399 140.384,265.812 141.077,265.812 C142.651,265.812 143.971,265.152 145.037,263.832 C146.104,262.512 146.637,260.892 146.637,258.972"/>
<path class="MeasureNumber" d="M142.021,742.293 C139.328,742.293 137.161,741.219 135.521,739.073 C133.881,736.926 133.061,734.093 133.061,730.573 C133.061,729.479 133.168,728.353 133.381,727.193 C133.594,726.033 134.061,724.713 134.781,723.233 C135.501,721.753 136.434,720.426 137.581,719.253 C138.728,718.079 140.334,717.033 142.401,716.113 C144.468,715.193 146.848,714.613 149.541,714.373 L149.621,715.013 C146.474,715.519 143.848,716.793 141.741,718.833 C139.634,720.873 138.314,723.399 137.781,726.413 C139.034,725.666 139.981,725.179 140.621,724.953 C141.261,724.726 142.021,724.613 142.901,724.613 C145.194,724.613 147.021,725.366 148.381,726.873 C149.741,728.379 150.421,730.413 150.421,732.973 C150.421,735.719 149.641,737.959 148.081,739.693 C146.521,741.426 144.501,742.293 142.021,742.293 M141.381,726.453 C139.568,726.453 138.348,726.853 137.721,727.653 C137.094,728.453 136.781,729.639 136.781,731.213 C136.781,734.306 137.288,736.739 138.301,738.513 C139.314,740.286 140.701,741.173 142.461,741.173 C143.874,741.173 144.954,740.579 145.701,739.393 C146.448,738.206 146.821,736.519 146.821,734.333 C146.821,731.826 146.348,729.886 145.401,728.513 C144.454,727.139 143.114,726.453 141.381,726.453"/>
<path class="MeasureNumber" d="M150.317,1190.25 L150.317,1190.89 L141.837,1217.05 L139.237,1217.05 L147.157,1193.21 L138.477,1193.21 C137.384,1193.21 136.551,1193.41 135.977,1193.81 C135.404,1194.21 134.691,1195.09 133.837,1196.45 L133.157,1196.13 L135.517,1190.25 L150.317,1190.25 "/>
<path class="MeasureNumber" d="M143.332,1676.89 C145.732,1678.68 147.366,1680.18 148.232,1681.39 C149.099,1682.61 149.532,1683.99 149.532,1685.53 C149.532,1687.59 148.819,1689.23 147.392,1690.45 C145.966,1691.68 144.052,1692.29 141.652,1692.29 C139.386,1692.29 137.539,1691.68 136.112,1690.45 C134.686,1689.23 133.972,1687.64 133.972,1685.69 C133.972,1684.33 134.299,1683.19 134.952,1682.27 C135.606,1681.35 137.012,1680.08 139.172,1678.45 C137.066,1676.61 135.712,1675.24 135.112,1674.33 C134.512,1673.43 134.212,1672.32 134.212,1671.01 C134.212,1669.2 134.932,1667.69 136.372,1666.49 C137.812,1665.29 139.626,1664.69 141.812,1664.69 C143.812,1664.69 145.459,1665.23 146.752,1666.29 C148.046,1667.36 148.692,1668.72 148.692,1670.37 C148.692,1671.73 148.292,1672.89 147.492,1673.85 C146.692,1674.81 145.306,1675.83 143.332,1676.89 M140.212,1679.25 C139.039,1680.19 138.212,1681.12 137.732,1682.05 C137.252,1682.99 137.012,1684.09 137.012,1685.37 C137.012,1687.11 137.479,1688.51 138.412,1689.57 C139.346,1690.64 140.572,1691.17 142.092,1691.17 C143.399,1691.17 144.459,1690.77 145.272,1689.95 C146.086,1689.14 146.492,1688.08 146.492,1686.77 C146.492,1686.35 146.446,1685.95 146.352,1685.57 C146.259,1685.2 146.166,1684.87 146.072,1684.59 C145.979,1684.31 145.792,1684 145.512,1683.65 C145.232,1683.31 145.006,1683.03 144.832,1682.83 C144.659,1682.63 144.346,1682.35 143.892,1681.97 C143.439,1681.6 143.099,1681.33 142.872,1681.17 C142.646,1681.01 142.219,1680.71 141.592,1680.25 C140.966,1679.8 140.506,1679.47 140.212,1679.25 M142.172,1676.17 C142.199,1676.15 142.379,1676.02 142.712,1675.79 C143.046,1675.57 143.286,1675.39 143.432,1675.25 C143.579,1675.12 143.806,1674.91 144.112,1674.63 C144.419,1674.35 144.652,1674.09 144.812,1673.83 C144.972,1673.58 145.152,1673.27 145.352,1672.91 C145.552,1672.55 145.699,1672.15 145.792,1671.71 C145.886,1671.27 145.932,1670.81 145.932,1670.33 C145.932,1668.95 145.532,1667.85 144.732,1667.03 C143.932,1666.22 142.852,1665.81 141.492,1665.81 C140.239,1665.81 139.206,1666.19 138.392,1666.93 C137.579,1667.68 137.172,1668.63 137.172,1669.77 C137.172,1670.89 137.559,1671.95 138.332,1672.93 C139.106,1673.92 140.386,1675 142.172,1676.17"/>
<polyline class="BarLine" fill="none" stroke="#000000" stroke-width="4.00" stroke-linejoin="bevel" points="2833.47,315.732 2833.47,417.733"/>
<polyline class="BarLine" fill="none" stroke="#000000" stroke-width="4.00" stroke-linejoin="bevel" points="2833.47,790.733 2833.47,892.733"/>
<polyline class="BarLine" fill="none" stroke="#000000" stroke-width="4.00" stroke-linejoin="bevel" points="2833.47,1265.73 2833.47,1367.73"/>
<polyline class="BarLine" fill="none" stroke="#000000" stroke-width="4.00" stroke-linejoin="bevel" points="2812.97,1740.73 2812.97,1842.73"/>
<polyline class="BarLine" fill="none" stroke="#000000" stroke-width="12.50" stroke-linejoin="bevel" points="2829.22,1740.73 2829.22,1842.73"/>
<polyline class="Stem" fill="none" stroke="#000000" stroke-width="3.25" stroke-linecap="round" stroke-linejoin="bevel" points="314.459,387.037 314.459,307.357"/>
<polyline class="Stem" fill="none" stroke="#000000" stroke-width="3.25" stroke-linecap="round" stroke-linejoin="bevel" points="951.534,387.037 951.534,307.357"/>
<polyline class="Stem" fill="none" stroke="#000000" stroke-width="3.25" stroke-linecap="round" stroke-linejoin="bevel" points="1588.61,399.537 1588.61,316.732"/>
<polyline class="Stem" fill="none" stroke="#000000" stroke-width="3.25" stroke-linecap="round" stroke-linejoin="bevel" points="2225.68,399.537 2225.68,316.732"/>
<polyline class="Stem" fill="none" stroke="#000000" stroke-width="3.25" stroke-linecap="round" stroke-linejoin="bevel" points="314.459,887.037 314.459,804.233"/>
<polyline class="Stem" fill="none" stroke="#000000" stroke-width="3.25" stroke-linecap="round" stroke-linejoin="bevel" points="1022.32,887.037 1022.32,804.233"/>
<polyline class="Stem" fill="none" stroke="#000000" stroke-width="3.25" stroke-linecap="round" stroke-linejoin="bevel" points="1731.08,900.393 1731.08,816.733"/>
<polyline class="Stem" fill="none" stroke="#000000" stroke-width="3.25" stroke-linecap="round" stroke-linejoin="bevel" points="314.459,1337.04 314.459,1257.36"/>
<polyline class="Stem" fill="none" stroke="#000000" stroke-width="3.25" stroke-linecap="round" stroke-linejoin="bevel" points="951.534,1337.04 951.534,1257.36"/>
<polyline class="Stem" fill="none" stroke="#000000" stroke-width="3.25" stroke-linecap="round" stroke-linejoin="bevel" points="1588.61,1349.54 1588.61,1266.73"/>
<polyline class="Stem" fill="none" stroke="#000000" stroke-width="3.25" stroke-linecap="round" stroke-linejoin="bevel" points="2225.68,1349.54 2225.68,1266.73"/>
<polyline class="Stem" fill="none" stroke="#000000" stroke-width="3.25" stroke-linecap="round" stroke-linejoin="bevel" points="314.459,1837.04 314.459,1754.23"/>
<polyline class="Stem" fill="none" stroke="#000000" stroke-width="3.25" stroke-linecap="round" stroke-linejoin="bevel" points="1068.81,1837.04 1068.81,1754.23"/>
<polyline class="Stem" fill="none" stroke="#000000" stroke-width="3.25" stroke-linecap="round" stroke-linejoin="bevel" points="1823.15,1849.54 1823.15,1766.73"/>
<path class="Note" d="M305.143,377.963 C308.268,377.963 310.904,378.777 313.053,380.404 C315.071,382.162 316.08,384.376 316.08,387.045 C316.08,391.537 313.769,395.736 309.147,399.643 C304.459,403.549 299.446,405.502 294.107,405.502 C290.982,405.502 288.346,404.688 286.197,403.061 C284.179,401.303 283.17,399.089 283.17,396.42 C283.17,391.928 285.514,387.729 290.201,383.822 C294.758,379.916 299.739,377.963 305.143,377.963"/>
<path class="Note" d="M942.217,377.963 C945.342,377.963 947.979,378.777 950.127,380.404 C952.146,382.162 953.155,384.376 953.155,387.045 C953.155,391.537 950.844,395.736 946.221,399.643 C941.534,403.549 936.521,405.502 931.182,405.502 C928.057,405.502 925.42,404.688 923.272,403.061 C921.254,401.303 920.245,399.089 920.245,396.42 C920.245,391.928 922.588,387.729 927.276,383.822 C931.833,379.916 936.814,377.963 942.217,377.963"/>
<path class="Note" d="M1579.29,390.463 C1582.42,390.463 1585.05,391.277 1587.2,392.904 C1589.22,394.662 1590.23,396.876 1590.23,399.545 C1590.23,404.037 1587.92,408.236 1583.3,412.143 C1578.61,416.049 1573.6,418.002 1568.26,418.002 C1565.13,418.002 1562.49,417.188 1560.35,415.561 C1558.33,413.803 1557.32,411.589 1557.32,408.92 C1557.32,404.428 1559.66,400.229 1564.35,396.322 C1568.91,392.416 1573.89,390.463 1579.29,390.463"/>
<path class="Note" d="M2216.37,390.463 C2219.49,390.463 2222.13,391.277 2224.28,392.904 C2226.29,394.662 2227.3,396.876 2227.3,399.545 C2227.3,404.037 2224.99,408.236 2220.37,412.143 C2215.68,416.049 2210.67,418.002 2205.33,418.002 C2202.21,418.002 2199.57,417.188 2197.42,415.561 C2195.4,413.803 2194.39,411.589 2194.39,408.92 C2194.39,404.428 2196.74,400.229 2201.43,396.322 C2205.98,392.416 2210.96,390.463 2216.37,390.463"/>
<path class="Note" d="M305.143,877.963 C308.268,877.963 310.904,878.777 313.053,880.405 C315.071,882.163 316.08,884.376 316.08,887.045 C316.08,891.538 313.769,895.737 309.147,899.643 C304.459,903.549 299.446,905.502 294.107,905.502 C290.982,905.502 288.346,904.689 286.197,903.061 C284.179,901.303 283.17,899.09 283.17,896.42 C283.17,891.928 285.514,887.729 290.201,883.823 C294.758,879.916 299.739,877.963 305.143,877.963"/>
<path class="Note" d="M1013,877.963 C1016.13,877.963 1018.76,878.777 1020.91,880.405 C1022.93,882.163 1023.94,884.376 1023.94,887.045 C1023.94,891.538 1021.63,895.737 1017.01,899.643 C1012.32,903.549 1007.31,905.502 1001.97,905.502 C998.843,905.502 996.206,904.689 994.058,903.061 C992.04,901.303 991.031,899.09 991.031,896.42 C991.031,891.928 993.374,887.729 998.062,883.823 C1002.62,879.916 1007.6,877.963 1013,877.963"/>
<path class="Note" d="M1729.53,897.69 C1729.53,896.583 1729.11,895.639 1728.26,894.858 C1727.42,894.011 1726.44,893.588 1725.33,893.588 C1723.38,893.588 1719.44,895.541 1713.52,899.448 C1707.4,903.419 1703.65,906.251 1702.29,907.944 C1701.57,908.855 1701.21,909.799 1701.21,910.776 C1701.21,911.883 1701.63,912.827 1702.48,913.608 C1703.26,914.454 1704.24,914.877 1705.41,914.877 C1707.3,914.877 1711.27,912.924 1717.32,909.018 C1723.31,905.112 1727.03,902.28 1728.46,900.522 C1729.17,899.676 1729.53,898.732 1729.53,897.69 M1724.36,890.463 C1729.96,890.463 1732.75,892.872 1732.75,897.69 C1732.75,900.034 1732.07,902.768 1730.7,905.893 C1729.34,908.953 1727.51,911.297 1725.24,912.924 C1720.22,916.31 1713.94,918.002 1706.39,918.002 C1700.79,918.002 1697.99,915.594 1697.99,910.776 C1697.99,908.627 1698.67,905.926 1700.04,902.67 C1701.34,899.545 1703.16,897.169 1705.51,895.541 C1710.52,892.156 1716.8,890.463 1724.36,890.463"/>
<path class="Note" d="M305.143,1327.96 C308.268,1327.96 310.904,1328.78 313.053,1330.4 C315.071,1332.16 316.08,1334.38 316.08,1337.05 C316.08,1341.54 313.769,1345.74 309.147,1349.64 C304.459,1353.55 299.446,1355.5 294.107,1355.5 C290.982,1355.5 288.346,1354.69 286.197,1353.06 C284.179,1351.3 283.17,1349.09 283.17,1346.42 C283.17,1341.93 285.514,1337.73 290.201,1333.82 C294.758,1329.92 299.739,1327.96 305.143,1327.96"/>
<path class="Note" d="M942.217,1327.96 C945.342,1327.96 947.979,1328.78 950.127,1330.4 C952.146,1332.16 953.155,1334.38 953.155,1337.05 C953.155,1341.54 950.844,1345.74 946.221,1349.64 C941.534,1353.55 936.521,1355.5 931.182,1355.5 C928.057,1355.5 925.42,1354.69 923.272,1353.06 C921.254,1351.3 920.245,1349.09 920.245,1346.42 C920.245,1341.93 922.588,1337.73 927.276,1333.82 C931.833,1329.92 936.814,1327.96 942.217,1327.96"/>
<path class="Note" d="M1579.29,1340.46 C1582.42,1340.46 1585.05,1341.28 1587.2,1342.9 C1589.22,1344.66 1590.23,1346.88 1590.23,1349.55 C1590.23,1354.04 1587.92,1358.24 1583.3,1362.14 C1578.61,1366.05 1573.6,1368 1568.26,1368 C1565.13,1368 1562.49,1367.19 1560.35,1365.56 C1558.33,1363.8 1557.32,1361.59 1557.32,1358.92 C1557.32,1354.43 1559.66,1350.23 1564.35,1346.32 C1568.91,1342.42 1573.89,1340.46 1579.29,1340.46"/>
<path class="Note" d="M2216.37,1340.46 C2219.49,1340.46 2222.13,1341.28 2224.28,1342.9 C2226.29,1344.66 2227.3,1346.88 2227.3,1349.55 C2227.3,1354.04 2224.99,1358.24 2220.37,1362.14 C2215.68,1366.05 2210.67,1368 2205.33,1368 C2202.21,1368 2199.57,1367.19 2197.42,1365.56 C2195.4,1363.8 2194.39,1361.59 2194.39,1358.92 C2194.39,1354.43 2196.74,1350.23 2201.43,1346.32 C2205.98,1342.42 2210.96,1340.46 2216.37,1340.46"/>
<path class="Note" d="M305.143,1827.96 C308.268,1827.96 310.904,1828.78 313.053,1830.41 C315.071,1832.16 316.08,1834.38 316.08,1837.05 C316.08,1841.54 313.769,1845.74 309.147,1849.64 C304.459,1853.55 299.446,1855.5 294.107,1855.5 C290.982,1855.5 288.346,1854.69 286.197,1853.06 C284.179,1851.3 283.17,1849.09 283.17,1846.42 C283.17,1841.93 285.514,1837.73 290.201,1833.82 C294.758,1829.92 299.739,1827.96 305.143,1827.96"/>
<path class="Note" d="M1059.49,1827.96 C1062.61,1827.96 1065.25,1828.78 1067.4,1830.41 C1069.42,1832.16 1070.43,1834.38 1070.43,1837.05 C1070.43,1841.54 1068.12,1845.74 1063.49,1849.64 C1058.81,1853.55 1053.79,1855.5 1048.45,1855.5 C1045.33,1855.5 1042.69,1854.69 1040.54,1853.06 C1038.53,1851.3 1037.52,1849.09 1037.52,1846.42 C1037.52,1841.93 1039.86,1837.73 1044.55,1833.82 C1049.11,1829.92 1054.09,1827.96 1059.49,1827.96"/>
<path class="Note" d="M1813.84,1840.46 C1816.96,1840.46 1819.6,1841.28 1821.75,1842.91 C1823.76,1844.66 1824.77,1846.88 1824.77,1849.55 C1824.77,1854.04 1822.46,1858.24 1817.84,1862.14 C1813.15,1866.05 1808.14,1868 1802.8,1868 C1799.68,1868 1797.04,1867.19 1794.89,1865.56 C1792.87,1863.8 1791.86,1861.59 1791.86,1858.92 C1791.86,1854.43 1794.21,1850.23 1798.89,1846.32 C1803.45,1842.42 1808.43,1840.46 1813.84,1840.46"/>
<path class="Clef" d="M194.451,366.147 C194.451,366.147 194.646,366.147 195.037,366.147 C195.297,366.081 195.525,366.049 195.721,366.049 C203.012,366.049 209.002,368.621 213.689,373.764 C218.377,378.842 220.721,384.766 220.721,391.537 C220.721,399.936 217.238,406.772 210.271,412.045 C208.449,413.477 206.072,414.649 203.143,415.561 C203.468,419.792 203.631,423.21 203.631,425.815 C203.631,426.335 203.566,428.223 203.435,431.479 C203.175,437.533 201.092,442.774 197.185,447.201 C193.409,451.563 188.722,453.744 183.123,453.744 C177.85,453.744 173.357,451.889 169.646,448.178 C165.935,444.402 164.08,439.844 164.08,434.506 C164.08,431.706 165.154,429.33 167.303,427.377 C169.516,425.424 172.088,424.447 175.018,424.447 C177.622,424.447 179.803,425.456 181.56,427.475 C183.383,429.363 184.295,431.706 184.295,434.506 C184.295,437.045 183.383,439.226 181.56,441.049 C179.738,442.872 177.557,443.783 175.018,443.783 C173.976,443.783 172.967,443.588 171.99,443.197 C174.855,447.429 178.663,449.545 183.416,449.545 C187.908,449.545 191.587,447.722 194.451,444.076 C197.446,440.3 199.074,435.906 199.334,430.893 C199.464,427.768 199.529,425.977 199.529,425.522 C199.529,421.876 199.399,418.881 199.139,416.537 C195.883,417.058 192.986,417.318 190.447,417.318 C181.398,417.318 173.683,413.738 167.303,406.576 C161.053,399.35 157.928,390.756 157.928,380.795 C157.928,378.712 158.123,376.596 158.514,374.447 C158.904,372.69 159.393,370.769 159.978,368.686 C160.304,367.514 161.183,365.626 162.615,363.022 C163.136,362.24 163.722,361.264 164.373,360.092 C165.024,358.92 165.48,358.139 165.74,357.748 C166.391,356.446 167.661,354.688 169.549,352.475 C170.07,351.889 170.607,351.238 171.16,350.522 C171.713,349.805 172.185,349.219 172.576,348.764 C172.967,348.308 173.26,347.95 173.455,347.69 C173.65,347.429 175.115,345.704 177.85,342.514 C178.501,341.863 179.135,341.163 179.754,340.414 C180.372,339.665 180.877,339.08 181.268,338.656 C181.658,338.233 181.951,337.924 182.146,337.729 C179.803,329.981 178.338,323.796 177.752,319.174 C177.296,315.463 177.068,310.385 177.068,303.94 C177.068,298.275 178.37,292.969 180.975,288.022 C183.514,282.878 187.062,278.679 191.619,275.424 C191.88,275.229 192.205,275.131 192.596,275.131 C193.051,275.131 193.377,275.229 193.572,275.424 C197.088,279.656 200.115,285.157 202.654,291.928 C205.258,298.699 206.56,304.851 206.56,310.385 C206.56,316.635 205.063,322.494 202.068,327.963 C198.683,333.757 194.321,339.747 188.982,345.932 C190.35,350.229 192.172,356.967 194.451,366.147 M202.752,411.557 C206.137,410.32 208.774,408.204 210.662,405.209 C212.745,402.344 213.787,399.122 213.787,395.541 C213.787,390.919 212.225,386.817 209.1,383.236 C205.909,379.525 201.84,377.442 196.893,376.986 C199.692,390.723 201.645,402.247 202.752,411.557 M164.959,388.998 C164.959,395.443 167.563,401.108 172.771,405.99 C178.11,410.743 184.1,413.119 190.74,413.119 C193.475,413.119 196.144,412.924 198.748,412.533 C197.706,402.637 195.656,390.789 192.596,376.986 C188.885,377.377 185.922,378.679 183.709,380.893 C181.56,383.171 180.486,385.743 180.486,388.608 C180.486,393.555 183.123,397.559 188.396,400.619 C188.852,401.075 189.08,401.563 189.08,402.084 C189.08,402.605 188.852,403.093 188.396,403.549 C188.006,404.005 187.518,404.233 186.932,404.233 C186.866,404.233 186.574,404.167 186.053,404.037 C182.342,402.019 179.477,399.415 177.459,396.225 C175.571,392.839 174.627,389.421 174.627,385.971 C174.627,381.479 176.027,377.41 178.826,373.764 C181.756,370.118 185.564,367.774 190.252,366.733 C188.429,359.441 186.932,353.744 185.76,349.643 C184.718,350.815 183.465,352.231 182,353.891 C180.535,355.551 179.672,356.544 179.412,356.869 C177.068,359.929 175.278,362.305 174.041,363.998 C171.827,367.058 170.2,369.695 169.158,371.908 C168.051,374.382 167.075,377.084 166.228,380.014 C165.382,382.813 164.959,385.808 164.959,388.998 M197.576,289.682 C192.693,292.091 188.852,295.541 186.053,300.033 C183.188,304.656 181.756,309.636 181.756,314.975 C181.756,319.662 182.928,325.977 185.271,333.92 C189.959,328.256 193.475,323.015 195.818,318.197 C198.292,313.119 199.529,307.813 199.529,302.279 C199.529,298.113 198.878,293.914 197.576,289.682"/>
<path class="Clef" d="M194.451,841.147 C194.451,841.147 194.646,841.147 195.037,841.147 C195.297,841.082 195.525,841.049 195.721,841.049 C203.012,841.049 209.002,843.621 213.689,848.764 C218.377,853.842 220.721,859.767 220.721,866.538 C220.721,874.936 217.238,881.772 210.271,887.045 C208.449,888.478 206.072,889.649 203.143,890.561 C203.468,894.793 203.631,898.211 203.631,900.815 C203.631,901.336 203.566,903.224 203.435,906.479 C203.175,912.534 201.092,917.774 197.185,922.202 C193.409,926.564 188.722,928.745 183.123,928.745 C177.85,928.745 173.357,926.889 169.646,923.178 C165.935,919.402 164.08,914.845 164.08,909.506 C164.08,906.707 165.154,904.33 167.303,902.377 C169.516,900.424 172.088,899.448 175.018,899.448 C177.622,899.448 179.803,900.457 181.56,902.475 C183.383,904.363 184.295,906.707 184.295,909.506 C184.295,912.045 183.383,914.226 181.56,916.049 C179.738,917.872 177.557,918.784 175.018,918.784 C173.976,918.784 172.967,918.588 171.99,918.198 C174.855,922.429 178.663,924.545 183.416,924.545 C187.908,924.545 191.587,922.722 194.451,919.077 C197.446,915.301 199.074,910.906 199.334,905.893 C199.464,902.768 199.529,900.978 199.529,900.522 C199.529,896.876 199.399,893.881 199.139,891.538 C195.883,892.058 192.986,892.319 190.447,892.319 C181.398,892.319 173.683,888.738 167.303,881.577 C161.053,874.35 157.928,865.756 157.928,855.795 C157.928,853.712 158.123,851.596 158.514,849.448 C158.904,847.69 159.393,845.769 159.978,843.686 C160.304,842.514 161.183,840.626 162.615,838.022 C163.136,837.241 163.722,836.264 164.373,835.092 C165.024,833.92 165.48,833.139 165.74,832.748 C166.391,831.446 167.661,829.689 169.549,827.475 C170.07,826.889 170.607,826.238 171.16,825.522 C171.713,824.806 172.185,824.22 172.576,823.764 C172.967,823.308 173.26,822.95 173.455,822.69 C173.65,822.429 175.115,820.704 177.85,817.514 C178.501,816.863 179.135,816.163 179.754,815.414 C180.372,814.666 180.877,814.08 181.268,813.657 C181.658,813.233 181.951,812.924 182.146,812.729 C179.803,804.982 178.338,798.797 177.752,794.174 C177.296,790.463 177.068,785.385 177.068,778.94 C177.068,773.276 178.37,767.97 180.975,763.022 C183.514,757.879 187.062,753.679 191.619,750.424 C191.88,750.229 192.205,750.131 192.596,750.131 C193.051,750.131 193.377,750.229 193.572,750.424 C197.088,754.656 200.115,760.157 202.654,766.928 C205.258,773.699 206.56,779.851 206.56,785.385 C206.56,791.635 205.063,797.495 202.068,802.963 C198.683,808.758 194.321,814.747 188.982,820.932 C190.35,825.229 192.172,831.967 194.451,841.147 M202.752,886.557 C206.137,885.32 208.774,883.204 210.662,880.209 C212.745,877.345 213.787,874.122 213.787,870.541 C213.787,865.919 212.225,861.817 209.1,858.237 C205.909,854.526 201.84,852.442 196.893,851.987 C199.692,865.724 201.645,877.247 202.752,886.557 M164.959,863.998 C164.959,870.444 167.563,876.108 172.771,880.991 C178.11,885.743 184.1,888.12 190.74,888.12 C193.475,888.12 196.144,887.924 198.748,887.534 C197.706,877.638 195.656,865.789 192.596,851.987 C188.885,852.377 185.922,853.679 183.709,855.893 C181.56,858.172 180.486,860.743 180.486,863.608 C180.486,868.556 183.123,872.56 188.396,875.62 C188.852,876.075 189.08,876.564 189.08,877.084 C189.08,877.605 188.852,878.093 188.396,878.549 C188.006,879.005 187.518,879.233 186.932,879.233 C186.866,879.233 186.574,879.168 186.053,879.038 C182.342,877.019 179.477,874.415 177.459,871.225 C175.571,867.84 174.627,864.422 174.627,860.971 C174.627,856.479 176.027,852.41 178.826,848.764 C181.756,845.118 185.564,842.774 190.252,841.733 C188.429,834.441 186.932,828.745 185.76,824.643 C184.718,825.815 183.465,827.231 182,828.891 C180.535,830.551 179.672,831.544 179.412,831.87 C177.068,834.929 175.278,837.306 174.041,838.998 C171.827,842.058 170.2,844.695 169.158,846.909 C168.051,849.383 167.075,852.084 166.228,855.014 C165.382,857.814 164.959,860.808 164.959,863.998 M197.576,764.682 C192.693,767.091 188.852,770.541 186.053,775.034 C183.188,779.656 181.756,784.636 181.756,789.975 C181.756,794.663 182.928,800.978 185.271,808.92 C189.959,803.256 193.475,798.015 195.818,793.198 C198.292,788.12 199.529,782.814 199.529,777.28 C199.529,773.113 198.878,768.914 197.576,764.682"/>
<path class="Clef" d="M194.451,1316.15 C194.451,1316.15 194.646,1316.15 195.037,1316.15 C195.297,1316.08 195.525,1316.05 195.721,1316.05 C203.012,1316.05 209.002,1318.62 213.689,1323.76 C218.377,1328.84 220.721,1334.77 220.721,1341.54 C220.721,1349.94 217.238,1356.77 210.271,1362.05 C208.449,1363.48 206.072,1364.65 203.143,1365.56 C203.468,1369.79 203.631,1373.21 203.631,1375.82 C203.631,1376.34 203.566,1378.22 203.435,1381.48 C203.175,1387.53 201.092,1392.77 197.185,1397.2 C193.409,1401.56 188.722,1403.74 183.123,1403.74 C177.85,1403.74 173.357,1401.89 169.646,1398.18 C165.935,1394.4 164.08,1389.85 164.08,1384.51 C164.08,1381.71 165.154,1379.33 167.303,1377.38 C169.516,1375.42 172.088,1374.45 175.018,1374.45 C177.622,1374.45 179.803,1375.46 181.56,1377.48 C183.383,1379.36 184.295,1381.71 184.295,1384.51 C184.295,1387.05 183.383,1389.23 181.56,1391.05 C179.738,1392.87 177.557,1393.78 175.018,1393.78 C173.976,1393.78 172.967,1393.59 171.99,1393.2 C174.855,1397.43 178.663,1399.55 183.416,1399.55 C187.908,1399.55 191.587,1397.72 194.451,1394.08 C197.446,1390.3 199.074,1385.91 199.334,1380.89 C199.464,1377.77 199.529,1375.98 199.529,1375.52 C199.529,1371.88 199.399,1368.88 199.139,1366.54 C195.883,1367.06 192.986,1367.32 190.447,1367.32 C181.398,1367.32 173.683,1363.74 167.303,1356.58 C161.053,1349.35 157.928,1340.76 157.928,1330.8 C157.928,1328.71 158.123,1326.6 158.514,1324.45 C158.904,1322.69 159.393,1320.77 159.978,1318.69 C160.304,1317.51 161.183,1315.63 162.615,1313.02 C163.136,1312.24 163.722,1311.26 164.373,1310.09 C165.024,1308.92 165.48,1308.14 165.74,1307.75 C166.391,1306.45 167.661,1304.69 169.549,1302.48 C170.07,1301.89 170.607,1301.24 171.16,1300.52 C171.713,1299.81 172.185,1299.22 172.576,1298.76 C172.967,1298.31 173.26,1297.95 173.455,1297.69 C173.65,1297.43 175.115,1295.7 177.85,1292.51 C178.501,1291.86 179.135,1291.16 179.754,1290.41 C180.372,1289.67 180.877,1289.08 181.268,1288.66 C181.658,1288.23 181.951,1287.92 182.146,1287.73 C179.803,1279.98 178.338,1273.8 177.752,1269.17 C177.296,1265.46 177.068,1260.39 177.068,1253.94 C177.068,1248.28 178.37,1242.97 180.975,1238.02 C183.514,1232.88 187.062,1228.68 191.619,1225.42 C191.88,1225.23 192.205,1225.13 192.596,1225.13 C193.051,1225.13 193.377,1225.23 193.572,1225.42 C197.088,1229.66 200.115,1235.16 202.654,1241.93 C205.258,1248.7 206.56,1254.85 206.56,1260.39 C206.56,1266.64 205.063,1272.49 202.068,1277.96 C198.683,1283.76 194.321,1289.75 188.982,1295.93 C190.35,1300.23 192.172,1306.97 194.451,1316.15 M202.752,1361.56 C206.137,1360.32 208.774,1358.2 210.662,1355.21 C212.745,1352.35 213.787,1349.12 213.787,1345.54 C213.787,1340.92 212.225,1336.82 209.1,1333.24 C205.909,1329.53 201.84,1327.44 196.893,1326.99 C199.692,1340.72 201.645,1352.25 202.752,1361.56 M164.959,1339 C164.959,1345.44 167.563,1351.11 172.771,1355.99 C178.11,1360.74 184.1,1363.12 190.74,1363.12 C193.475,1363.12 196.144,1362.92 198.748,1362.53 C197.706,1352.64 195.656,1340.79 192.596,1326.99 C188.885,1327.38 185.922,1328.68 183.709,1330.89 C181.56,1333.17 180.486,1335.74 180.486,1338.61 C180.486,1343.56 183.123,1347.56 188.396,1350.62 C188.852,1351.08 189.08,1351.56 189.08,1352.08 C189.08,1352.61 188.852,1353.09 188.396,1353.55 C188.006,1354.01 187.518,1354.23 186.932,1354.23 C186.866,1354.23 186.574,1354.17 186.053,1354.04 C182.342,1352.02 179.477,1349.42 177.459,1346.23 C175.571,1342.84 174.627,1339.42 174.627,1335.97 C174.627,1331.48 176.027,1327.41 178.826,1323.76 C181.756,1320.12 185.564,1317.77 190.252,1316.73 C188.429,1309.44 186.932,1303.74 185.76,1299.64 C184.718,1300.82 183.465,1302.23 182,1303.89 C180.535,1305.55 179.672,1306.54 179.412,1306.87 C177.068,1309.93 175.278,1312.31 174.041,1314 C171.827,1317.06 170.2,1319.7 169.158,1321.91 C168.051,1324.38 167.075,1327.08 166.228,1330.01 C165.382,1332.81 164.959,1335.81 164.959,1339 M197.576,1239.68 C192.693,1242.09 188.852,1245.54 186.053,1250.03 C183.188,1254.66 181.756,1259.64 181.756,1264.98 C181.756,1269.66 182.928,1275.98 185.271,1283.92 C189.959,1278.26 193.475,1273.02 195.818,1268.2 C198.292,1263.12 199.529,1257.81 199.529,1252.28 C199.529,1248.11 198.878,1243.91 197.576,1239.68"/>
<path class="Clef" d="M194.451,1791.15 C194.451,1791.15 194.646,1791.15 195.037,1791.15 C195.297,1791.08 195.525,1791.05 195.721,1791.05 C203.012,1791.05 209.002,1793.62 213.689,1798.76 C218.377,1803.84 220.721,1809.77 220.721,1816.54 C220.721,1824.94 217.238,1831.77 210.271,1837.05 C208.449,1838.48 206.072,1839.65 203.143,1840.56 C203.468,1844.79 203.631,1848.21 203.631,1850.82 C203.631,1851.34 203.566,1853.22 203.435,1856.48 C203.175,1862.53 201.092,1867.78 197.185,1872.2 C193.409,1876.56 188.722,1878.75 183.123,1878.75 C177.85,1878.75 173.357,1876.89 169.646,1873.18 C165.935,1869.4 164.08,1864.85 164.08,1859.51 C164.08,1856.71 165.154,1854.33 167.303,1852.38 C169.516,1850.42 172.088,1849.45 175.018,1849.45 C177.622,1849.45 179.803,1850.46 181.56,1852.48 C183.383,1854.36 184.295,1856.71 184.295,1859.51 C184.295,1862.05 183.383,1864.23 181.56,1866.05 C179.738,1867.87 177.557,1868.78 175.018,1868.78 C173.976,1868.78 172.967,1868.59 171.99,1868.2 C174.855,1872.43 178.663,1874.55 183.416,1874.55 C187.908,1874.55 191.587,1872.72 194.451,1869.08 C197.446,1865.3 199.074,1860.91 199.334,1855.89 C199.464,1852.77 199.529,1850.98 199.529,1850.52 C199.529,1846.88 199.399,1843.88 199.139,1841.54 C195.883,1842.06 192.986,1842.32 190.447,1842.32 C181.398,1842.32 173.683,1838.74 167.303,1831.58 C161.053,1824.35 157.928,1815.76 157.928,1805.8 C157.928,1803.71 158.123,1801.6 158.514,1799.45 C158.904,1797.69 159.393,1795.77 159.978,1793.69 C160.304,1792.51 161.183,1790.63 162.615,1788.02 C163.136,1787.24 163.722,1786.26 164.373,1785.09 C165.024,1783.92 165.48,1783.14 165.74,1782.75 C166.391,1781.45 167.661,1779.69 169.549,1777.48 C170.07,1776.89 170.607,1776.24 171.16,1775.52 C171.713,1774.81 172.185,1774.22 172.576,1773.76 C172.967,1773.31 173.26,1772.95 173.455,1772.69 C173.65,1772.43 175.115,1770.7 177.85,1767.51 C178.501,1766.86 179.135,1766.16 179.754,1765.42 C180.372,1764.67 180.877,1764.08 181.268,1763.66 C181.658,1763.23 181.951,1762.92 182.146,1762.73 C179.803,1754.98 178.338,1748.8 177.752,1744.17 C177.296,1740.46 177.068,1735.39 177.068,1728.94 C177.068,1723.28 178.37,1717.97 180.975,1713.02 C183.514,1707.88 187.062,1703.68 191.619,1700.42 C191.88,1700.23 192.205,1700.13 192.596,1700.13 C193.051,1700.13 193.377,1700.23 193.572,1700.42 C197.088,1704.66 200.115,1710.16 202.654,1716.93 C205.258,1723.7 206.56,1729.85 206.56,1735.39 C206.56,1741.64 205.063,1747.5 202.068,1752.96 C198.683,1758.76 194.321,1764.75 188.982,1770.93 C190.35,1775.23 192.172,1781.97 194.451,1791.15 M202.752,1836.56 C206.137,1835.32 208.774,1833.2 210.662,1830.21 C212.745,1827.35 213.787,1824.12 213.787,1820.54 C213.787,1815.92 212.225,1811.82 209.1,1808.24 C205.909,1804.53 201.84,1802.44 196.893,1801.99 C199.692,1815.72 201.645,1827.25 202.752,1836.56 M164.959,1814 C164.959,1820.44 167.563,1826.11 172.771,1830.99 C178.11,1835.74 184.1,1838.12 190.74,1838.12 C193.475,1838.12 196.144,1837.92 198.748,1837.53 C197.706,1827.64 195.656,1815.79 192.596,1801.99 C188.885,1802.38 185.922,1803.68 183.709,1805.89 C181.56,1808.17 180.486,1810.74 180.486,1813.61 C180.486,1818.56 183.123,1822.56 188.396,1825.62 C188.852,1826.08 189.08,1826.56 189.08,1827.08 C189.08,1827.61 188.852,1828.09 188.396,1828.55 C188.006,1829.01 187.518,1829.23 186.932,1829.23 C186.866,1829.23 186.574,1829.17 186.053,1829.04 C182.342,1827.02 179.477,1824.42 177.459,1821.23 C175.571,1817.84 174.627,1814.42 174.627,1810.97 C174.627,1806.48 176.027,1802.41 178.826,1798.76 C181.756,1795.12 185.564,1792.78 190.252,1791.73 C188.429,1784.44 186.932,1778.75 185.76,1774.64 C184.718,1775.82 183.465,1777.23 182,1778.89 C180.535,1780.55 179.672,1781.54 179.412,1781.87 C177.068,1784.93 175.278,1787.31 174.041,1789 C171.827,1792.06 170.2,1794.7 169.158,1796.91 C168.051,1799.38 167.075,1802.08 166.228,1805.01 C165.382,1807.81 164.959,1810.81 164.959,1814 M197.576,1714.68 C192.693,1717.09 188.852,1720.54 186.053,1725.03 C183.188,1729.66 181.756,1734.64 181.756,1739.98 C181.756,1744.66 182.928,1750.98 185.271,1758.92 C189.959,1753.26 193.475,1748.02 195.818,1743.2 C198.292,1738.12 199.529,1732.81 199.529,1727.28 C199.529,1723.11 198.878,1718.91 197.576,1714.68"/>
<path class="NoteDot" d="M1835.19,1858.24 C1834.08,1857.13 1833.53,1855.8 1833.53,1854.23 C1833.53,1852.67 1834.08,1851.34 1835.19,1850.23 C1836.29,1849.12 1837.63,1848.57 1839.19,1848.57 C1840.75,1848.57 1842.09,1849.12 1843.2,1850.23 C1844.3,1851.34 1844.86,1852.67 1844.86,1854.23 C1844.86,1855.8 1844.3,1857.13 1843.2,1858.24 C1842.09,1859.34 1840.75,1859.9 1839.19,1859.9 C1837.63,1859.9 1836.29,1859.34 1835.19,1858.24"/>
<path class="Page" d="M141.771,3976.72 C141.905,3976.11 142.038,3975.57 142.171,3975.12 C142.305,3974.67 142.591,3974.01 143.031,3973.14 C143.471,3972.27 143.965,3971.55 144.511,3970.98 C145.058,3970.41 145.818,3969.89 146.791,3969.44 C147.765,3968.99 148.865,3968.76 150.091,3968.76 C152.171,3968.76 153.925,3969.44 155.351,3970.8 C156.778,3972.16 157.491,3973.84 157.491,3975.84 C157.491,3978.85 155.785,3982.15 152.371,3985.72 L145.651,3992.76 L155.211,3992.76 C156.118,3992.76 156.791,3992.61 157.231,3992.3 C157.671,3991.99 158.265,3991.27 159.011,3990.12 L159.531,3990.32 L157.331,3995.8 L141.731,3995.8 L141.731,3995.32 L148.851,3987.76 C152.318,3984.08 154.051,3980.61 154.051,3977.36 C154.051,3975.68 153.531,3974.32 152.491,3973.28 C151.451,3972.24 150.091,3971.72 148.411,3971.72 C147.025,3971.72 145.911,3972.1 145.071,3972.86 C144.231,3973.62 143.411,3974.97 142.611,3976.92 L141.771,3976.72 "/>
</svg>
